<?xml version="1.0" encoding="utf-8"?>
<!-- Generator: Adobe Illustrator 16.0.4, SVG Export Plug-In . SVG Version: 6.00 Build 0)  -->
<!DOCTYPE svg PUBLIC "-//W3C//DTD SVG 1.1//EN" "http://www.w3.org/Graphics/SVG/1.1/DTD/svg11.dtd">
<svg version="1.1" id="Calque_1" xmlns="http://www.w3.org/2000/svg" xmlns:xlink="http://www.w3.org/1999/xlink" x="0px" y="0px"
	 width="355px" height="96.072px" viewBox="0 0 355 96.072" enable-background="new 0 0 355 96.072" xml:space="preserve">
<g>
	<path fill="#FFFFFF" d="M177.509,20.679c-0.982,0-1.783,0.801-1.783,1.788v32.597c0,3.036,2.472,5.504,5.508,5.504h48.948
		c3.04,0,5.509-2.468,5.509-5.504V22.467c0-0.987-0.802-1.788-1.784-1.788H177.509z M230.182,62.952h-48.948
		c-4.354,0-7.893-3.539-7.893-7.889V22.467c0-2.298,1.87-4.173,4.168-4.173h56.396c2.302,0,4.169,1.875,4.169,4.173v32.597
		C238.074,59.413,234.535,62.952,230.182,62.952 M173.267,78.629h12.651v-2.835h-12.651V78.629z M225.502,78.629h12.646v-2.835
		h-12.646V78.629z M184.945,89.079h41.529v4.315c0,0.158,0.131,0.294,0.299,0.294h10.584c0.162,0,0.298-0.136,0.298-0.294v-5.346
		l0.405-0.354c1.184-1.048,1.862-2.557,1.862-4.13V80.45c-0.354,0.349-0.849,0.562-1.383,0.562h-13.426
		c-1.104,0-1.996-0.895-1.996-1.998v-3.613c0-1.104,0.894-1.997,1.996-1.997h13.426c0.535,0,1.027,0.215,1.383,0.563V43.733h2.384
		c0,0.328,0.271,0.597,0.596,0.597h4.75c0.33,0,0.597-0.269,0.597-0.597V28.708c0-0.328-0.267-0.597-0.597-0.597h-4.75
		c-0.324,0-0.596,0.269-0.596,0.597h-2.384v-9.084c0-3.036-2.468-5.507-5.504-5.507H177c-3.038,0-5.509,2.471-5.509,5.507v9.084
		h-2.385c0-0.328-0.268-0.597-0.596-0.597h-4.75c-0.328,0-0.596,0.269-0.596,0.597v15.023c0,0.328,0.268,0.597,0.596,0.597h4.75
		c0.328,0,0.596-0.269,0.596-0.597h2.385v30.236c0.355-0.35,0.848-0.563,1.388-0.563h13.42c1.104,0,2.002,0.895,2.002,1.997v3.613
		c0,1.104-0.898,1.998-2.002,1.998h-13.42c-0.54,0-1.031-0.215-1.388-0.562v3.114c0,1.573,0.683,3.082,1.869,4.13l0.4,0.354v5.346
		c0,0.163,0.128,0.294,0.296,0.294h10.584c0.167,0,0.303-0.136,0.303-0.294L184.945,89.079L184.945,89.079z M237.357,96.073h-10.584
		c-1.477,0-2.683-1.2-2.683-2.678v-1.933h-36.762v1.933c0,1.478-1.206,2.678-2.688,2.678h-10.584c-1.479,0-2.68-1.2-2.68-2.678
		v-4.298c-1.451-1.476-2.271-3.46-2.271-5.531V46.656c-0.194,0.037-0.391,0.057-0.596,0.057h-4.75c-1.641,0-2.979-1.334-2.979-2.979
		V28.708c0-1.646,1.34-2.979,2.979-2.979h4.75c0.205,0,0.4,0.02,0.596,0.062v-6.165c0-4.353,3.537-7.892,7.894-7.892h57.418
		c4.354,0,7.888,3.539,7.888,7.892v6.165c0.195-0.042,0.392-0.062,0.596-0.062h4.75c1.645,0,2.979,1.334,2.979,2.979v15.023
		c0,1.646-1.336,2.979-2.979,2.979h-4.75c-0.204,0-0.399-0.02-0.596-0.057v36.909c0,2.071-0.819,4.057-2.268,5.531v4.298
		C240.039,94.872,238.838,96.073,237.357,96.073"/>
	<path fill="#FFFFFF" d="M85.084,56.373h53.164c-2.848-5.043-5.44-9.46-7.726-13.127l-0.064-0.109
		c-0.654-1.129-1.864-1.829-3.166-1.829H96.036c-1.292,0-2.509,0.705-3.166,1.829l-0.068,0.114
		C90.514,46.931,87.915,51.348,85.084,56.373 M138.796,58.756H84.53c-0.729,0-1.383-0.377-1.753-1.006
		c-0.378-0.647-0.382-1.457-0.017-2.118c2.947-5.234,5.646-9.825,8.021-13.645c1.11-1.908,3.113-3.065,5.256-3.065h31.256
		c2.145,0,4.146,1.157,5.229,3.018c2.39,3.85,5.089,8.436,8.048,13.688c0.368,0.666,0.363,1.476-0.019,2.118
		C140.184,58.379,139.526,58.756,138.796,58.756 M72.668,52.717c-0.577,0-1.045,0.466-1.045,1.038v2.743
		c0,0.577,0.468,1.043,1.045,1.043l6.242-0.016l0.979-0.068v-3.702c0-0.572-0.465-1.038-1.038-1.038H72.668z M143.436,57.458
		l1.132,0.088l6.099-0.004c0.571,0,1.038-0.466,1.038-1.043v-2.743c0-0.572-0.467-1.038-1.038-1.038h-6.185
		c-0.578,0-1.046,0.466-1.046,1.038V57.458z M77.497,68.102c-0.053,0-0.114,0.042-0.114,0.116v2.454
		c0,0.273,0.205,0.517,0.478,0.562l12.406,2.118l-1.129-3.059c-0.168-0.442-0.559-0.76-1.031-0.815L77.497,68.102z M145.834,68.102
		h-0.02L135.22,69.48c-0.461,0.057-0.861,0.382-1.029,0.819l-1.125,3.06l12.402-2.123c0.275-0.047,0.476-0.283,0.476-0.562v-2.454
		C145.943,68.144,145.887,68.102,145.834,68.102 M88.87,90.061h45.593v3.692l11.479-0.064v-4.052l0.281-0.33
		c0.244-0.294,0.536-0.778,0.536-1.435l0.714-15.119c-0.423,0.429-0.978,0.722-1.605,0.834l-12.971,2.211
		c-0.806,0.14-1.579-0.204-2.029-0.847c-0.383-0.551-0.474-1.259-0.24-1.887l1.332-3.595c0.471-1.276,1.605-2.18,2.954-2.356
		l10.592-1.374c0.505-0.063,0.996,0.023,1.415,0.229c-0.032-0.079-0.065-0.149-0.096-0.214c-1.263-2.328-2.432-4.471-3.531-6.464
		l-1.064-1.923l-1.02-1.815c-3.016-5.351-5.755-10.023-8.158-13.881c-1.201-2.074-3.406-3.341-5.76-3.341H96.036
		c-2.356,0-4.555,1.267-5.741,3.312c-2.422,3.892-5.164,8.56-8.172,13.913l-1.021,1.812l-1.063,1.928
		c-1.103,1.988-2.274,4.131-3.524,6.439c-0.033,0.064-0.07,0.145-0.104,0.229c0.422-0.2,0.907-0.288,1.418-0.225l10.589,1.374
		c1.351,0.178,2.479,1.08,2.957,2.356l1.329,3.595c0.234,0.628,0.145,1.336-0.242,1.887c-0.449,0.646-1.22,0.985-2.025,0.847
		L77.46,73.587c-0.628-0.112-1.184-0.41-1.603-0.834l0.71,15.059c0.005,0.723,0.291,1.201,0.533,1.49l0.282,0.335v4.116
		l11.548-0.064L88.87,90.061z M146.011,96.073h-11.615c-1.277,0-2.315-1.037-2.315-2.318v-1.31H91.254v1.31
		c0,1.281-1.045,2.318-2.323,2.318H77.322c-1.277,0-2.322-1.037-2.322-2.318v-3.282c-0.524-0.769-0.812-1.677-0.812-2.599
		l-0.764-16.041c0-1.682,0.096-5.64,1.008-7.245c0.876-1.635,1.727-3.187,2.535-4.661h-4.3c-1.889,0-3.431-1.541-3.431-3.427v-2.743
		c0-1.888,1.542-3.422,3.431-3.422h6.184c1.106,0,2.099,0.527,2.722,1.353c2.434-4.268,4.674-8.049,6.683-11.271
		c1.593-2.742,4.582-4.469,7.781-4.469h31.256c3.203,0,6.192,1.727,7.804,4.496c1.988,3.199,4.226,6.977,6.656,11.238
		c0.631-0.819,1.616-1.348,2.729-1.348h6.185c1.888,0,3.422,1.534,3.422,3.422v2.743c0,1.886-1.534,3.427-3.422,3.427h-4.307
		c0.815,1.476,1.663,3.036,2.551,4.68c0.862,1.522,0.995,5.149,0.995,7.171l-0.766,16.148c0.005,0.875-0.281,1.778-0.812,2.547
		v3.282C148.327,95.035,147.289,96.073,146.011,96.073"/>
	<path fill="#FFFFFF" d="M294.36,20.965h3.818v-3.362h-3.818V20.965z M300.562,23.349h-8.586v-8.13h8.586V23.349z M272.275,30.488
		c-0.932,0-1.686,0.752-1.686,1.68v26.437c0,2.905,2.365,5.271,5.271,5.271h40.822c2.906,0,5.267-2.365,5.267-5.271V32.167
		c0-0.928-0.754-1.68-1.676-1.68H272.275z M316.683,66.258H275.86c-4.224,0-7.654-3.433-7.654-7.655V32.167
		c0-2.242,1.824-4.062,4.069-4.062h47.998c2.239,0,4.06,1.82,4.06,4.062v26.437C324.332,62.826,320.896,66.258,316.683,66.258
		 M269.155,76.721h15.287v-3.069h-15.287V76.721z M284.689,79.105h-15.78c-1.179,0-2.138-0.959-2.138-2.138v-3.562
		c0-1.179,0.959-2.138,2.138-2.138h15.78c1.179,0,2.138,0.959,2.138,2.138v3.562C286.826,78.146,285.867,79.105,284.689,79.105
		 M308.102,76.721h15.282v-3.069h-15.282V76.721z M323.63,79.105h-15.775c-1.178,0-2.138-0.959-2.138-2.138v-3.562
		c0-1.179,0.96-2.138,2.138-2.138h15.775c1.179,0,2.138,0.959,2.138,2.138v3.562C325.768,78.146,324.809,79.105,323.63,79.105
		 M271.781,23.349c-2.904,0-5.266,2.361-5.266,5.27v49.211c0,2.905,2.36,5.271,5.266,5.271h48.985c2.9,0,5.262-2.365,5.262-5.271
		V28.618c0-2.907-2.359-5.27-5.262-5.27h-18.863v-8.13h8.014c0.782,0,1.416-0.633,1.416-1.411c0-0.782-0.634-1.415-1.416-1.415
		h-27.29c-0.782,0-1.415,0.633-1.415,1.415c0,0.778,0.633,1.411,1.415,1.411h8.014v8.13H271.781z M283.25,88.254h26.033
		l-2.505-2.771h-21.02L283.25,88.254z M260.309,93.689h71.917l-5.876-2.436c-0.982-0.405-2.025-0.615-3.103-0.615h-3.343
		l-4.577-3.311h-3.665l2.989,3.311h-36.771l2.993-3.311h-3.659l-4.587,3.311h-3.334c-1.08,0-2.118,0.21-3.098,0.615L260.309,93.689z
		 M336.389,96.073h-80.234c-0.754,0-1.383-0.517-1.53-1.247c-0.149-0.74,0.231-1.457,0.931-1.746l9.729-4.027
		c1.267-0.526,2.616-0.797,4.014-0.797h2.57l3.832-2.771h-3.916c-4.22,0-7.65-3.437-7.65-7.654V28.618
		c0-4.222,3.432-7.652,7.65-7.652h16.475v-3.362h-5.63c-2.101,0-3.8-1.701-3.8-3.795c0-2.093,1.699-3.799,3.8-3.799h27.291
		c2.096,0,3.8,1.707,3.8,3.799c0,2.094-1.704,3.795-3.8,3.795h-5.63v3.362h16.479c4.214,0,7.646,3.432,7.646,7.652v49.211
		c0,4.219-3.432,7.654-7.646,7.654h-3.926l3.837,2.771h2.57c1.393,0,2.742,0.271,4.01,0.797l9.727,4.027
		c0.694,0.283,1.081,1.006,0.933,1.746C337.767,95.556,337.143,96.073,336.389,96.073"/>
	<path fill="#FFFFFF" d="M39.154,47.958l4.254,2.468l0.113-0.032c0.025-0.042,0.01-0.091-0.027-0.114l-4.199-2.406L39.154,47.958z
		 M15.854,47.876l-4.286,2.402c-0.044,0.023-0.059,0.076-0.034,0.118l0.12,0.028l4.2-2.407l0.009-0.138L15.854,47.876z M26.4,77.028
		v15.189c0,0.81,0.659,1.472,1.475,1.472h0.201c0.81,0,1.474-0.662,1.474-1.472V76.045l1.125,0.755c0-1.919,0-3.623-0.005-5.137
		L30.66,69.94c-0.028-3.632-0.104-6.364-0.387-7.863c-0.219-1.17-0.538-1.478-0.759-1.603c-0.205-0.126-0.465-0.182-0.906-0.201
		l-1.047-0.041l-0.617,0.052c-0.327,0.027-0.547,0.084-0.715,0.19c-0.231,0.145-0.527,0.456-0.743,1.645
		c-0.396,2.196-0.396,7.021-0.396,15.021v0.442L26.4,77.028z M28.074,96.073h-0.201c-2.128,0-3.857-1.731-3.857-3.854V80.054h-5.318
		c-0.909,0-1.652-0.74-1.652-1.652v-0.801c0-0.913,0.743-1.653,1.652-1.653h4.008c0.005-8.219,0.038-12.046,0.433-14.253
		c0.2-1.112,0.591-2.485,1.842-3.25c0.224-0.14,0.452-0.241,0.67-0.316v-4.004h-4.561V51.85c0-0.82,0.405-1.551,1.029-1.993
		c-1.278-0.368-2.233-0.727-2.542-0.85c-0.447-0.138-1.14-0.147-1.512-0.057c-0.209,0.471-0.567,0.876-1.028,1.139l-4.203,2.407
		c-1.139,0.653-2.712,0.227-3.364-0.915c-0.677-1.184-0.268-2.693,0.915-3.371l4.195-2.407c0.567-0.323,1.265-0.405,1.888-0.232
		c0.911-0.354,2.643-0.576,4.254-0.059l0.114,0.037c0.391,0.154,3.899,1.482,6.675,1.504c2.756-0.021,6.265-1.35,6.656-1.504
		l0.113-0.037c0.71-0.232,1.433-0.347,2.138-0.347c0.925,0,1.674,0.192,2.188,0.399c0.619-0.168,1.308-0.081,1.87,0.237l4.2,2.407
		c1.183,0.683,1.592,2.192,0.914,3.371c-0.651,1.142-2.229,1.568-3.375,0.911l-4.2-2.403c-0.473-0.272-0.834-0.678-1.045-1.159
		c-0.356-0.084-0.962-0.079-1.544,0.104c0.005,0-0.835,0.32-2.062,0.683c0.745,0.426,1.246,1.222,1.246,2.133v2.274h-4.763v3.93
		c0.291,0.074,0.586,0.195,0.882,0.363c1.292,0.769,1.692,2.207,1.883,3.223c0.284,1.499,0.381,3.851,0.419,7.101h4.255
		c0.914,0,1.656,0.745,1.656,1.662v0.797c0,0.907-0.742,1.652-1.656,1.652h-4.231c0,1.352,0,2.831,0,4.471v0.358
		c0,0.777-0.463,1.448-1.125,1.751v12.786C31.932,94.34,30.2,96.073,28.074,96.073"/>
	<path fill="#36475A" d="M239.346,79.016c0,0.442-0.359,0.801-0.811,0.801H225.11c-0.441,0-0.801-0.357-0.801-0.801v-3.613
		c0-0.441,0.358-0.806,0.801-0.806h13.426c0.45,0,0.811,0.363,0.811,0.806V79.016z M187.11,79.016c0,0.442-0.362,0.801-0.806,0.801
		h-13.429c-0.445,0-0.803-0.357-0.803-0.801v-3.613c0-0.441,0.356-0.806,0.803-0.806h13.429c0.442,0,0.806,0.363,0.806,0.806V79.016
		z M174.535,22.467c0-1.645,1.329-2.98,2.974-2.98h56.396c1.646,0,2.977,1.337,2.977,2.98v32.597c0,3.692-2.998,6.696-6.7,6.696
		h-48.948c-3.7,0-6.697-3.004-6.697-6.696L174.535,22.467L174.535,22.467z M247.652,26.92h-4.75c-0.985,0-1.788,0.802-1.788,1.788
		v-9.082c0-3.702-2.997-6.7-6.694-6.7h-57.418c-3.702,0-6.7,2.998-6.7,6.7v9.082c0-0.986-0.801-1.788-1.788-1.788h-4.75
		c-0.987,0-1.788,0.802-1.788,1.788v15.023c0,0.991,0.801,1.788,1.788,1.788h4.75c0.987,0,1.788-0.797,1.788-1.788v39.833
		c0,2.002,0.878,3.79,2.27,5.021v4.81c0,0.819,0.664,1.485,1.488,1.485h10.584c0.824,0,1.494-0.666,1.494-1.485v-3.124h39.146v3.124
		c0,0.819,0.666,1.485,1.489,1.485h10.588c0.824,0,1.485-0.666,1.485-1.485v-4.81c1.388-1.229,2.268-3.019,2.268-5.021V43.733
		c0,0.991,0.803,1.788,1.788,1.788h4.75c0.987,0,1.788-0.797,1.788-1.788V28.708C249.44,27.722,248.64,26.92,247.652,26.92"/>
	<path fill="#36475A" d="M145.659,66.923c0.783-0.104,1.476,0.508,1.476,1.295v2.454c0,0.855-0.619,1.592-1.467,1.736l-12.971,2.217
		c-0.653,0.11-1.183-0.526-0.954-1.146l1.332-3.595c0.318-0.856,1.087-1.472,1.992-1.588L145.659,66.923z M90.635,74.625
		L77.66,72.409c-0.845-0.146-1.471-0.881-1.471-1.736v-2.454c0-0.787,0.696-1.397,1.479-1.295l10.591,1.374
		c0.91,0.116,1.679,0.73,1.993,1.588l1.329,3.595C91.811,74.099,91.286,74.737,90.635,74.625 M83.802,56.214
		c2.956-5.253,5.632-9.802,7.99-13.597l0.049-0.077c0.866-1.497,2.475-2.427,4.195-2.427h31.256c1.721,0,3.332,0.93,4.2,2.427
		l0.047,0.077c2.354,3.795,5.029,8.344,7.991,13.597c0.328,0.591-0.054,1.35-0.734,1.35H84.53
		C83.853,57.564,83.466,56.805,83.802,56.214 M150.665,51.525h-6.185c-1.235,0-2.237,1.001-2.237,2.23v1.216
		c-3.437-6.112-6.098-10.58-8.177-13.928c-1.401-2.407-3.99-3.904-6.774-3.904H96.036c-2.784,0-5.369,1.497-6.771,3.904
		c-2.084,3.348-4.745,7.814-8.184,13.928v-1.216c0-1.229-1.001-2.23-2.235-2.23h-6.179c-1.236,0-2.237,1.001-2.237,2.23v2.743
		c0,1.232,1.001,2.233,2.237,2.233h6.179c0.052,0,0.101-0.014,0.147-0.014c-1.103,1.993-2.272,4.14-3.527,6.449
		c-0.659,1.169-0.85,4.372-0.85,6.606l0.759,16.098c0,0.843,0.313,1.605,0.813,2.197v3.684c0,0.619,0.506,1.127,1.132,1.127h11.608
		c0.621,0,1.131-0.508,1.131-1.127v-2.5h43.209v2.5c0,0.619,0.506,1.127,1.125,1.127h11.615c0.624,0,1.124-0.508,1.124-1.127v-3.684
		c0.501-0.592,0.817-1.354,0.817-2.197l0.762-16.098c0-2.234-0.191-5.438-0.854-6.606c-1.25-2.311-2.424-4.456-3.528-6.449
		c0.054,0,0.096,0.014,0.148,0.014h6.185c1.232,0,2.229-1.001,2.229-2.233v-2.743C152.896,52.526,151.898,51.525,150.665,51.525"/>
	<path fill="#36475A" d="M267.968,73.406c0-0.521,0.419-0.944,0.94-0.944h15.78c0.521,0,0.944,0.424,0.944,0.944v3.562
		c0,0.521-0.423,0.94-0.944,0.94h-15.78c-0.521,0-0.94-0.42-0.94-0.94V73.406z M269.397,32.164c0-1.583,1.285-2.87,2.873-2.87
		h48.003c1.583,0,2.868,1.287,2.868,2.87v26.443c0,3.566-2.893,6.458-6.459,6.458H275.86c-3.565,0-6.463-2.892-6.463-6.458V32.164
		L269.397,32.164z M293.168,16.412h6.201v5.742h-6.201V16.412z M324.574,73.406v3.562c0,0.521-0.419,0.94-0.944,0.94h-15.775
		c-0.526,0-0.945-0.42-0.945-0.94v-3.562c0-0.521,0.419-0.944,0.945-0.944h15.775C324.156,72.46,324.574,72.884,324.574,73.406
		 M271.781,84.288h48.985c3.565,0,6.454-2.893,6.454-6.459V28.618c0-3.571-2.889-6.464-6.454-6.464h-17.671v-5.742h6.821
		c1.438,0,2.606-1.164,2.606-2.605c0-1.438-1.168-2.606-2.606-2.606h-27.291c-1.443,0-2.612,1.169-2.612,2.606
		c0,1.441,1.169,2.605,2.612,2.605h6.821v5.742H271.78c-3.57,0-6.463,2.893-6.463,6.464v49.211
		C265.318,81.396,268.21,84.288,271.781,84.288 M336.528,94.177l-9.728-4.022c-1.126-0.471-2.337-0.708-3.554-0.708h-2.955
		l-4.577-3.311h-6.738l2.994,3.311h-31.402l2.989-3.311h-6.732l-4.577,3.311h-2.957c-1.215,0-2.427,0.237-3.548,0.708l-9.731,4.022
		c-0.368,0.154-0.261,0.703,0.144,0.703h80.234C336.788,94.88,336.901,94.332,336.528,94.177"/>
	<path fill="#36475A" d="M44.085,49.246l-4.2-2.407c-0.419-0.239-0.92-0.214-1.302,0.019c-0.463-0.249-1.916-0.862-3.939-0.214
		l-0.037,0.015c-0.04,0.014-3.958,1.563-7.104,1.588c-3.146-0.023-7.066-1.574-7.104-1.588l-0.044-0.015
		c-1.92-0.619-3.336-0.059-3.867,0.225c-0.384-0.242-0.892-0.272-1.314-0.028l-4.196,2.407c-0.614,0.354-0.824,1.129-0.477,1.74
		c0.239,0.415,0.668,0.644,1.109,0.644c0.214,0,0.437-0.053,0.637-0.167l4.199-2.407c0.377-0.219,0.602-0.601,0.634-1.006
		c0.276-0.154,1.4-0.638,2.938-0.154c0.328,0.137,3.585,1.404,6.789,1.638v1.053h-3.267c-0.696,0-1.258,0.567-1.258,1.265v1.082
		h4.563v6.165c-0.458,0.037-0.869,0.131-1.241,0.363c-0.673,0.41-1.053,1.146-1.292,2.443c-0.405,2.255-0.414,6.626-0.414,15.236
		H18.7c-0.259,0-0.464,0.209-0.464,0.461v0.801c0,0.257,0.205,0.467,0.464,0.467h6.32c0.067,0,0.13-0.016,0.187-0.042v13.387
		c0,1.472,1.196,2.668,2.666,2.668h0.201c1.469,0,2.666-1.196,2.666-2.668V78.281c0.113,0.074,0.246,0.131,0.396,0.131
		c0.405,0,0.729-0.325,0.729-0.727v-0.363c0-2.133,0-4.01-0.005-5.661h5.428c0.256,0,0.465-0.21,0.465-0.462v-0.797
		c0-0.256-0.209-0.466-0.465-0.466H31.85c-0.028-4.102-0.123-6.568-0.405-8.078c-0.237-1.267-0.649-2.012-1.324-2.412
		c-0.437-0.256-0.913-0.34-1.465-0.362v-6.151h4.764V51.85c0-0.696-0.573-1.258-1.27-1.258h-3.495V50.53c-0.022,0-0.049,0-0.071,0
		v-1.016c2.843-0.281,6.155-1.487,6.479-1.618c1.638-0.519,2.715,0.035,2.901,0.141c0.028,0.409,0.261,0.802,0.643,1.021
		l4.205,2.407c0.2,0.114,0.421,0.167,0.636,0.167c0.442,0,0.873-0.229,1.11-0.644C44.904,50.375,44.695,49.6,44.085,49.246"/>
</g>
</svg>
