<?xml version="1.0" encoding="utf-8"?>
<!-- Generator: Adobe Illustrator 16.0.4, SVG Export Plug-In . SVG Version: 6.00 Build 0)  -->
<!DOCTYPE svg PUBLIC "-//W3C//DTD SVG 1.1//EN" "http://www.w3.org/Graphics/SVG/1.1/DTD/svg11.dtd">
<svg version="1.1" id="Calque_1" xmlns="http://www.w3.org/2000/svg" xmlns:xlink="http://www.w3.org/1999/xlink" x="0px" y="0px"
	 width="355px" height="96.072px" viewBox="0 0 355 96.072" enable-background="new 0 0 355 96.072" xml:space="preserve">
<g>
	<path fill="#E30613" d="M243.402,77.04c0,0.5-0.406,0.906-0.917,0.906h-15.193c-0.499,0-0.905-0.404-0.905-0.906v-4.089
		c0-0.499,0.404-0.911,0.905-0.911h15.193c0.508,0,0.917,0.41,0.917,0.911V77.04L243.402,77.04z M184.29,77.04
		c0,0.5-0.408,0.906-0.911,0.906h-15.196c-0.504,0-0.909-0.404-0.909-0.906v-4.089c0-0.499,0.403-0.911,0.909-0.911h15.196
		c0.501,0,0.911,0.41,0.911,0.911V77.04z M170.062,13.049c0-1.861,1.503-3.372,3.364-3.372h63.818c1.862,0,3.369,1.513,3.369,3.372
		v36.887c0,4.178-3.394,7.578-7.581,7.578h-55.391c-4.187,0-7.578-3.4-7.578-7.578L170.062,13.049L170.062,13.049z M252.8,18.088
		h-5.376c-1.113,0-2.021,0.908-2.021,2.024V9.834c0-4.189-3.391-7.581-7.575-7.581h-64.975c-4.189,0-7.582,3.392-7.582,7.581v10.278
		c0-1.116-0.906-2.024-2.023-2.024h-5.375c-1.117,0-2.023,0.908-2.023,2.024v17c0,1.122,0.906,2.023,2.023,2.023h5.375
		c1.117,0,2.023-0.901,2.023-2.023v45.075c0,2.266,0.994,4.288,2.568,5.682v5.443c0,0.926,0.751,1.68,1.685,1.68H181.5
		c0.933,0,1.69-0.754,1.69-1.68v-3.535h44.298v3.535c0,0.926,0.753,1.68,1.685,1.68h11.981c0.932,0,1.682-0.754,1.682-1.68v-5.443
		c1.569-1.392,2.566-3.416,2.566-5.682V37.114c0,1.122,0.908,2.024,2.021,2.024h5.376c1.118,0,2.023-0.902,2.023-2.024V20.112
		C254.823,18.996,253.918,18.088,252.8,18.088"/>
	<path fill="#E30613" d="M138.385,63.355c0.886-0.117,1.67,0.576,1.67,1.467v2.776c0,0.968-0.701,1.802-1.66,1.965l-14.679,2.508
		c-0.738,0.125-1.338-0.594-1.079-1.296l1.507-4.069c0.359-0.968,1.23-1.665,2.253-1.796L138.385,63.355z M76.12,72.071
		l-14.682-2.507c-0.957-0.165-1.666-0.997-1.666-1.965v-2.776c0-0.891,0.788-1.582,1.674-1.467l11.985,1.556
		c1.03,0.131,1.899,0.826,2.255,1.797l1.504,4.068C77.45,71.477,76.857,72.198,76.12,72.071 M68.387,51.237
		c3.345-5.944,6.373-11.091,9.042-15.386l0.055-0.087c0.98-1.694,2.8-2.745,4.748-2.745h35.369c1.947,0,3.771,1.051,4.753,2.745
		l0.053,0.087c2.663,4.295,5.69,9.442,9.042,15.386c0.372,0.67-0.061,1.528-0.83,1.528H69.211
		C68.445,52.765,68.007,51.906,68.387,51.237 M144.05,45.931h-7c-1.397,0-2.531,1.133-2.531,2.523v1.376
		c-3.89-6.916-6.901-11.971-9.254-15.761c-1.585-2.723-4.514-4.417-7.665-4.417H82.232c-3.15,0-6.076,1.694-7.663,4.417
		c-2.358,3.79-5.37,8.843-9.26,15.761v-1.376c0-1.39-1.133-2.523-2.53-2.523h-6.992c-1.399,0-2.532,1.133-2.532,2.523v3.104
		c0,1.395,1.133,2.527,2.532,2.527h6.992c0.059,0,0.114-0.016,0.167-0.016c-1.249,2.255-2.571,4.685-3.991,7.297
		c-0.746,1.322-0.961,4.947-0.961,7.477l0.858,18.217c0,0.953,0.354,1.815,0.919,2.485v4.168c0,0.701,0.573,1.276,1.281,1.276
		h13.137c0.703,0,1.279-0.575,1.279-1.276v-2.828h48.896v2.828c0,0.701,0.573,1.276,1.273,1.276h13.144
		c0.706,0,1.272-0.575,1.272-1.276v-4.168c0.567-0.67,0.925-1.532,0.925-2.485l0.862-18.217c0-2.529-0.217-6.155-0.967-7.477
		c-1.415-2.614-2.743-5.042-3.992-7.297c0.061,0,0.108,0.016,0.167,0.016h7c1.394,0,2.522-1.133,2.522-2.527v-3.104
		C146.573,47.064,145.445,45.931,144.05,45.931"/>
	<path fill="#E30613" d="M277.159,70.692c0-0.589,0.476-1.069,1.065-1.069h17.855c0.591,0,1.068,0.481,1.068,1.069v4.031
		c0,0.589-0.478,1.063-1.068,1.063h-17.855c-0.59,0-1.065-0.476-1.065-1.063V70.692z M278.778,24.022
		c0-1.792,1.454-3.248,3.251-3.248h54.319c1.793,0,3.247,1.456,3.247,3.248v29.923c0,4.035-3.275,7.309-7.31,7.309H286.09
		c-4.032,0-7.312-3.273-7.312-7.309V24.022L278.778,24.022z M305.677,6.198h7.016v6.497h-7.016V6.198z M341.215,70.692v4.031
		c0,0.589-0.474,1.063-1.068,1.063h-17.852c-0.594,0-1.069-0.476-1.069-1.063v-4.031c0-0.589,0.476-1.069,1.069-1.069h17.852
		C340.741,69.62,341.215,70.102,341.215,70.692 M281.474,83.005h55.433c4.034,0,7.303-3.272,7.303-7.309V20.01
		c0-4.042-3.269-7.315-7.303-7.315h-19.997V6.198h7.72c1.627,0,2.949-1.317,2.949-2.948c0-1.628-1.322-2.95-2.949-2.95h-30.883
		c-1.633,0-2.956,1.323-2.956,2.95c0,1.63,1.323,2.948,2.956,2.948h7.718v6.497h-19.99c-4.04,0-7.313,3.273-7.313,7.315v55.687
		C274.16,79.734,277.434,83.005,281.474,83.005 M354.743,94.197l-11.009-4.552c-1.274-0.533-2.645-0.801-4.022-0.801h-3.343
		l-5.18-3.746h-7.626l3.389,3.746h-35.535l3.384-3.746h-7.618l-5.178,3.746h-3.347c-1.375,0-2.748,0.268-4.017,0.801l-11.011,4.552
		c-0.417,0.174-0.296,0.795,0.164,0.795h90.791C355.036,94.991,355.165,94.371,354.743,94.197"/>
	<path fill="#E30613" d="M38.194,43.352l-4.753-2.723c-0.474-0.271-1.041-0.243-1.473,0.021c-0.524-0.281-2.168-0.976-4.458-0.241
		l-0.042,0.016c-0.045,0.015-4.479,1.769-8.038,1.796c-3.561-0.024-7.997-1.781-8.04-1.796l-0.05-0.016
		c-2.172-0.702-3.775-0.067-4.376,0.254c-0.434-0.274-1.009-0.307-1.486-0.032l-4.749,2.723c-0.695,0.401-0.933,1.278-0.54,1.969
		c0.271,0.47,0.756,0.729,1.254,0.729c0.243,0,0.495-0.06,0.722-0.19l4.75-2.722c0.427-0.249,0.682-0.68,0.718-1.139
		c0.312-0.173,1.583-0.722,3.324-0.173c0.372,0.154,4.057,1.589,7.683,1.853v1.191h-3.697c-0.788,0-1.423,0.642-1.423,1.433v1.225
		h5.163v6.977c-0.518,0.041-0.983,0.147-1.404,0.409c-0.761,0.464-1.191,1.297-1.462,2.766c-0.457,2.551-0.468,7.497-0.468,17.241
		H9.468c-0.293,0-0.525,0.236-0.525,0.521v0.905c0,0.291,0.232,0.528,0.525,0.528h7.151c0.076,0,0.146-0.018,0.212-0.047v15.149
		c0,1.665,1.353,3.02,3.017,3.02h0.228c1.662,0,3.017-1.354,3.017-3.02V76.208c0.127,0.084,0.277,0.148,0.447,0.148
		c0.458,0,0.826-0.368,0.826-0.822v-0.412c0-2.413,0-4.537-0.007-6.405h6.144c0.289,0,0.525-0.237,0.525-0.522v-0.901
		c0-0.29-0.236-0.527-0.525-0.527h-6.155c-0.032-4.644-0.139-7.434-0.458-9.143c-0.268-1.434-0.734-2.275-1.498-2.729
		c-0.496-0.289-1.033-0.384-1.659-0.409v-6.96h5.392V46.3c0-0.788-0.649-1.425-1.438-1.425h-3.955v-0.069c-0.025,0-0.056,0-0.08,0
		v-1.149c3.217-0.318,6.964-1.683,7.332-1.831c1.854-0.588,3.072,0.04,3.283,0.159c0.032,0.464,0.294,0.907,0.727,1.156l4.758,2.722
		c0.227,0.13,0.476,0.19,0.719,0.19c0.501,0,0.988-0.259,1.256-0.729C39.12,44.63,38.884,43.753,38.194,43.352"/>
</g>
</svg>
