<?xml version="1.0" encoding="UTF-8" standalone="no"?>
<!-- Generator: Adobe Illustrator 16.0.4, SVG Export Plug-In . SVG Version: 6.00 Build 0)  -->

<svg
   xmlns:dc="http://purl.org/dc/elements/1.1/"
   xmlns:cc="http://creativecommons.org/ns#"
   xmlns:rdf="http://www.w3.org/1999/02/22-rdf-syntax-ns#"
   xmlns:svg="http://www.w3.org/2000/svg"
   xmlns="http://www.w3.org/2000/svg"
   xmlns:sodipodi="http://sodipodi.sourceforge.net/DTD/sodipodi-0.dtd"
   xmlns:inkscape="http://www.inkscape.org/namespaces/inkscape"
   version="1.1"
   id="Calque_1"
   x="0px"
   y="0px"
   width="60"
   height="60"
   viewBox="1.5 0 60 60"
   enable-background="new 1.5 0 12 12"
   xml:space="preserve"
   sodipodi:docname="icon-cross.svg"
   inkscape:version="0.92.2 (5c3e80d, 2017-08-06)"><metadata
     id="metadata9"><rdf:RDF><cc:Work
         rdf:about=""><dc:format>image/svg+xml</dc:format><dc:type
           rdf:resource="http://purl.org/dc/dcmitype/StillImage" /><dc:title></dc:title></cc:Work></rdf:RDF></metadata><defs
     id="defs7"><pattern
       y="0"
       x="0"
       height="6"
       width="6"
       patternUnits="userSpaceOnUse"
       id="EMFhbasepattern" /><pattern
       y="0"
       x="0"
       height="6"
       width="6"
       patternUnits="userSpaceOnUse"
       id="EMFhbasepattern-6" /><pattern
       y="0"
       x="0"
       height="6"
       width="6"
       patternUnits="userSpaceOnUse"
       id="EMFhbasepattern-5" /></defs><sodipodi:namedview
     pagecolor="#ffffff"
     bordercolor="#666666"
     borderopacity="1"
     objecttolerance="10"
     gridtolerance="10"
     guidetolerance="10"
     inkscape:pageopacity="0"
     inkscape:pageshadow="2"
     inkscape:window-width="1920"
     inkscape:window-height="1137"
     id="namedview5"
     showgrid="false"
     inkscape:zoom="9.8333333"
     inkscape:cx="35.673677"
     inkscape:cy="19.282764"
     inkscape:window-x="-8"
     inkscape:window-y="-8"
     inkscape:window-maximized="1"
     inkscape:current-layer="Calque_1" /><g
     aria-label="✗"
     style="font-style:normal;font-variant:normal;font-weight:400;font-size:86.77500153px;line-height:125%;font-family:'Times New Roman';text-align:start;letter-spacing:0px;word-spacing:0px;text-anchor:start;fill:#e30613;fill-opacity:1;stroke:none;stroke-width:1"
     id="text845"><path
       d="M 12.598478,53.278612 Q 12.132402,52.261717 11.539213,51.626158 L 27.682414,29.169737 q -5.974255,-16.270313 -5.974255,-16.397425 0,-1.610083 1.694824,-1.610083 0.593188,0 1.440601,0.211853 1.313488,-0.254223 2.754089,-1.059265 l 1.144006,0.550818 4.703138,10.635022 L 45.308586,8.7471046 48.020305,9.8063698 49.0372,8.7471046 q 1.313488,0.6355591 2.626977,1.8219364 -2.288012,4.364172 -6.440332,9.406274 -0.08474,0.08474 -7.457227,8.474122 l 7.62671,15.295788 q 0,1.737195 -2.669349,3.559131 l 0.67793,0.847412 q -0.635559,1.821936 -2.330383,1.821936 -1.949048,0 -9.109681,-12.923034 L 19.547258,56.414037 q -1.39823,2.160901 -3.898096,2.160901 -2.669348,0 -2.711719,-2.160901 -0.423706,-0.593189 -0.423706,-1.864307 0,-0.593189 0.08474,-1.271118 z"
       style="font-style:normal;font-variant:normal;font-weight:400;font-size:86.77500153px;font-family:'Times New Roman';fill:#e30613;fill-opacity:1;stroke-width:1"
       id="path4547" /></g></svg>