<?xml version="1.0" encoding="utf-8"?>
<!-- Generator: Adobe Illustrator 16.0.0, SVG Export Plug-In . SVG Version: 6.00 Build 0)  -->
<!DOCTYPE svg PUBLIC "-//W3C//DTD SVG 1.1//EN" "http://www.w3.org/Graphics/SVG/1.1/DTD/svg11.dtd">
<svg version="1.1" id="Calque_1" xmlns="http://www.w3.org/2000/svg" xmlns:xlink="http://www.w3.org/1999/xlink" x="0px" y="0px"
	 width="275px" height="107.775px" viewBox="0 0 275 107.775" enable-background="new 0 0 275 107.775" xml:space="preserve">
<g>
	<polygon fill="#627384" points="160.805,4.087 166.955,4.087 166.381,7.429 164.637,7.429 163.189,15.667 164.936,15.667 
		164.337,18.988 156.654,18.988 157.252,15.667 159.018,15.667 160.018,9.878 155.418,14.413 154.994,14.413 152.057,9.898 
		151.057,15.667 152.844,15.667 152.248,18.988 144.566,18.988 145.159,15.667 146.904,15.667 148.354,7.429 146.607,7.429 
		147.182,4.087 153.143,4.087 156.036,9.088 	"/>
	<g>
		<path fill="#627384" d="M175.577,7.345c-2.726,0-4.875,2.127-4.875,4.917c0,2.065,1.233,3.492,3.321,3.492
			c2.832,0,4.959-2.131,4.959-5.023C178.98,8.663,177.729,7.345,175.577,7.345 M173.641,19.349c-4.302,0-7.238-2.321-7.238-6.408
			c0-5.642,4.193-9.194,9.727-9.194c4.303,0,7.135,2.363,7.135,6.407C183.262,15.902,179.236,19.349,173.641,19.349"/>
		<path fill="#627384" d="M190.18,9.835h3.342c0.766,0,1.615-0.468,1.615-1.384c0-0.552-0.359-1.062-1.104-1.062h-3.428
			L190.18,9.835z M189.137,15.774h3.555c1.213,0,1.873-0.896,1.873-1.748c0-0.808-0.555-1.254-1.361-1.254h-3.557L189.137,15.774z
			 M184.859,7.387l0.574-3.301h9.238c2.725,0,4.768,1.13,4.768,3.512c0,1.045-0.319,2.747-2.213,3.514
			c1.041,0.618,1.682,1.788,1.682,2.915c0,3.768-3.322,4.938-6.812,4.959h-9.279l0.598-3.319h1.619l1.443-8.279H184.859
			L184.859,7.387L184.859,7.387z"/>
		<path fill="#627384" d="M201.27,7.387l0.574-3.301h7.75l-0.576,3.301h-1.768c-0.488,2.766-0.958,5.491-1.447,8.279h1.768
			l-0.596,3.32h-7.748l0.596-3.32h1.746c0.49-2.788,0.955-5.512,1.447-8.279H201.27z"/>
	</g>
	<polygon fill="#627384" points="210.465,7.429 211.039,4.087 218.744,4.087 218.171,7.429 216.402,7.429 214.998,15.411 
		218.616,15.411 219.189,13.052 222.874,13.052 221.831,18.988 208.525,18.988 209.124,15.667 210.721,15.667 212.168,7.429 	"/>
	<g>
		<path fill="#627384" d="M224.789,7.387l0.574-3.301h7.75l-0.577,3.301h-1.767c-0.488,2.766-0.959,5.491-1.447,8.279h1.768
			l-0.597,3.32h-7.748l0.599-3.32h1.744c0.49-2.788,0.956-5.512,1.446-8.279H224.789z"/>
	</g>
	<polygon fill="#627384" points="248.542,4.087 247.521,9.856 243.967,9.856 244.223,7.664 242.816,7.664 241.413,15.667 
		243.158,15.667 242.561,18.988 234.792,18.988 235.387,15.667 237.156,15.667 238.561,7.664 237.111,7.664 236.604,9.856 
		233.05,9.856 234.068,4.087 	"/>
	<path fill="#627384" d="M249.564,4.087l-0.574,3.297h1.639l-1.447,8.281h-1.641l-0.596,3.321h13.519l0.892-5.045h-3.361
		l-0.359,1.49h-4.26l0.404-2.258h3.578l0.572-3.276h-3.572l0.401-2.299h3.979l-0.17,1.488h3.193l0.87-5.002h-13.067V4.087
		L249.564,4.087z M256.717,0l-1.957,2.916l-0.021,0.171h3.361l2.744-2.832L260.911,0H256.717z"/>
	<g>
		<path fill="#627384" d="M6.443,86.131c0.131-0.277,0.181-0.607,0.181-1.615v-6.428h3.035v6.608c0,1.567-0.165,2.322-0.612,3.082
			c-0.741,1.236-2.471,1.715-4.203,1.715c-1.746,0-3.477-0.479-4.233-1.715C0.149,87.02,0,86.264,0,84.696v-6.608h3.046v6.428
			c0,1.008,0.051,1.338,0.183,1.615c0.216,0.562,0.875,0.824,1.615,0.824C5.587,86.955,6.23,86.692,6.443,86.131"/>
		<path fill="#627384" d="M14.355,82.308c0.412-0.577,1.237-1.058,2.355-1.058c0.875,0,1.583,0.249,2.043,0.761
			c0.494,0.562,0.694,1.118,0.694,2.849v4.436H16.43v-4.45c0-0.759-0.115-1.315-0.955-1.315c-0.693,0-1.088,0.458-1.088,1.284v4.481
			h-3.014V81.45h2.983L14.355,82.308L14.355,82.308L14.355,82.308z"/>
		<path fill="#627384" d="M31.958,87.036c-0.296,1.09-1.384,2.457-3.873,2.457c-2.521,0-4.168-1.5-4.168-4.07
			c0-2.555,1.649-4.188,4.201-4.188c2.29,0,3.445,1.224,3.823,2.623l-2.506,0.707c-0.164-0.658-0.479-1.202-1.253-1.202
			c-0.955,0-1.302,0.858-1.302,2.06c0,1.188,0.38,1.945,1.302,1.945c0.708,0,1.006-0.396,1.203-1.005L31.958,87.036z"/>
		<path fill="#627384" d="M37.315,85.834c-0.165,0.065-0.266,0.112-0.825,0.246l-0.197,0.051c-0.33,0.083-0.56,0.168-0.726,0.28
			c-0.165,0.133-0.264,0.298-0.264,0.578c0,0.476,0.297,0.805,0.938,0.805c0.675,0,1.072-0.312,1.072-0.92v-1.04H37.315z
			 M40.101,87.186c0,0.493,0.05,0.658,0.394,0.658h0.083v1.517c-0.364,0.065-0.79,0.115-1.334,0.115
			c-1.023,0-1.616-0.215-1.779-0.727c-0.264,0.279-0.891,0.741-2.143,0.741c-1.665,0-2.836-0.822-2.836-2.456
			c0-0.773,0.297-1.302,0.777-1.68c0.527-0.412,1.284-0.644,2.158-0.774l1.481-0.229c0.397-0.065,0.415-0.137,0.415-0.364v-0.165
			c0-0.508-0.331-0.726-0.94-0.726c-0.659,0-1.037,0.313-1.037,1.006l-2.655-0.017c-0.033-2.062,1.846-2.801,3.922-2.801
			c1.664,0,3.494,0.263,3.494,2.421V87.186L40.101,87.186z"/>
		<path fill="#627384" d="M44.665,82.308c0.412-0.577,1.237-1.058,2.357-1.058c0.873,0,1.583,0.249,2.043,0.761
			c0.493,0.562,0.693,1.118,0.693,2.849v4.436h-3.016v-4.45c0-0.759-0.116-1.315-0.956-1.315c-0.694,0-1.088,0.458-1.088,1.284
			v4.481H41.68V81.45h2.985V82.308L44.665,82.308z"/>
		<path fill="#627384" d="M54.868,86.346c0,0.443,0.05,0.655,0.197,0.806c0.165,0.181,0.476,0.233,0.859,0.233
			c0.33,0,0.559-0.034,0.659-0.054v1.994c-0.314,0.053-0.958,0.137-1.763,0.137c-1.04,0-2.127-0.137-2.554-0.71
			c-0.347-0.462-0.397-0.873-0.397-1.633v-3.623h-1.498v-2.041h1.498v-2.623l3-0.527v3.15h1.697v2.041H54.87v2.85H54.868z"/>
		<path fill="#627384" d="M61.248,87.366c0.923,0,1.302-0.872,1.302-2.009c0-1.138-0.38-2.013-1.302-2.013s-1.287,0.875-1.287,2.013
			C59.96,86.494,60.326,87.366,61.248,87.366 M61.248,81.235c2.569,0,4.283,1.6,4.283,4.153c0,2.569-1.681,4.104-4.283,4.104
			c-2.603,0-4.268-1.534-4.268-4.104C56.98,82.835,58.677,81.235,61.248,81.235"/>
		<path fill="#627384" d="M69.472,82.308c0.412-0.577,1.237-1.058,2.355-1.058c0.875,0,1.583,0.249,2.043,0.761
			c0.494,0.562,0.694,1.118,0.694,2.849v4.436h-3.017v-4.45c0-0.759-0.115-1.315-0.955-1.315c-0.694,0-1.089,0.458-1.089,1.284
			v4.481h-3.014V81.45h2.981v0.857L69.472,82.308L69.472,82.308z"/>
		<path fill="#627384" d="M79.279,86.031v1.928c0,1.09-0.066,1.749-0.215,2.292c-0.362,1.287-1.22,1.93-2.934,1.96v-1.479
			c0.907-0.066,1.482-0.464,1.482-1.434H76.13v-3.265h3.149V86.031z"/>
		<path fill="#627384" d="M88.558,88.438c-0.395,0.576-1.188,1.055-2.322,1.055c-0.875,0-1.583-0.251-2.044-0.759
			c-0.494-0.562-0.694-1.121-0.694-2.852V81.45h3.017v4.434c0,0.76,0.099,1.317,0.937,1.317c0.365,0,0.678-0.133,0.859-0.411
			c0.149-0.229,0.215-0.544,0.215-0.972v-4.369h3.017v7.843h-2.985V88.438L88.558,88.438z"/>
		<path fill="#627384" d="M96.076,82.308c0.412-0.577,1.236-1.058,2.355-1.058c0.875,0,1.583,0.249,2.043,0.761
			c0.494,0.562,0.693,1.118,0.693,2.849v4.436H98.15v-4.45c0-0.759-0.116-1.315-0.955-1.315c-0.694,0-1.088,0.458-1.088,1.284v4.481
			H93.09V81.45h2.985L96.076,82.308L96.076,82.308z"/>
		<path fill="#627384" d="M108.436,84.4h2.687c-0.033-0.856-0.512-1.367-1.318-1.367C108.979,83.033,108.468,83.544,108.436,84.4
			 M113.742,87.679c-0.509,0.691-1.714,1.813-3.938,1.813c-2.505,0-4.169-1.55-4.169-4.202c0-2.504,1.763-4.053,4.169-4.053
			c2.702,0,4.07,1.86,4.07,4.332c0,0.181,0,0.298-0.018,0.479h-5.405c0.083,0.906,0.759,1.303,1.582,1.303
			c0.876,0,1.401-0.429,1.715-0.94L113.742,87.679z"/>
		<path fill="#627384" d="M115.936,86.296c0.509,0.659,1.435,1.221,2.652,1.221c0.727,0,1.121-0.165,1.121-0.515
			c0-0.358-0.526-0.458-1.204-0.591l-1.037-0.213c-1.203-0.263-2.753-0.625-2.753-2.357c0-1.91,1.912-2.603,3.544-2.603
			c1.665,0,2.935,0.66,3.609,1.302l-1.435,1.483c-0.51-0.411-1.267-0.825-2.273-0.825c-0.461,0-0.905,0.134-0.905,0.461
			c0,0.364,0.444,0.445,1.136,0.578l1.155,0.23c1.383,0.277,2.603,0.806,2.603,2.354c0,1.863-1.648,2.672-3.675,2.672
			c-1.796,0-3.261-0.678-4.136-1.73L115.936,86.296z"/>
		<path fill="#627384" d="M127.293,83.345c-0.891,0-1.402,0.789-1.402,2.013c0,1.202,0.512,2.009,1.402,2.009
			s1.299-0.741,1.299-2.009C128.592,84.102,128.183,83.345,127.293,83.345 M128.198,89.493c-1.153,0-1.896-0.512-2.258-0.907v3.672
			h-3.018V81.449h3.018v0.743c0.38-0.464,1.152-0.941,2.291-0.941c2.011,0,3.411,1.519,3.411,4.139
			C131.643,87.959,130.274,89.493,128.198,89.493"/>
		<path fill="#627384" d="M137.148,85.834c-0.166,0.065-0.267,0.112-0.827,0.246l-0.196,0.051c-0.33,0.083-0.56,0.168-0.726,0.28
			c-0.165,0.133-0.264,0.298-0.264,0.578c0,0.476,0.297,0.805,0.938,0.805c0.675,0,1.072-0.312,1.072-0.92v-1.04H137.148z
			 M139.934,87.186c0,0.493,0.051,0.658,0.395,0.658h0.083v1.517c-0.361,0.065-0.789,0.115-1.333,0.115
			c-1.023,0-1.616-0.215-1.781-0.727c-0.263,0.279-0.891,0.741-2.143,0.741c-1.665,0-2.835-0.822-2.835-2.456
			c0-0.773,0.296-1.302,0.774-1.68c0.527-0.412,1.285-0.644,2.16-0.774l1.481-0.229c0.396-0.065,0.415-0.137,0.415-0.364v-0.165
			c0-0.508-0.332-0.726-0.94-0.726c-0.66,0-1.037,0.313-1.037,1.006l-2.654-0.017c-0.034-2.062,1.846-2.801,3.921-2.801
			c1.666,0,3.494,0.263,3.494,2.421v3.479L139.934,87.186L139.934,87.186z"/>
		<path fill="#627384" d="M149.049,87.036c-0.296,1.09-1.386,2.457-3.875,2.457c-2.521,0-4.169-1.5-4.169-4.07
			c0-2.555,1.649-4.188,4.203-4.188c2.29,0,3.442,1.224,3.821,2.623l-2.504,0.707c-0.166-0.658-0.479-1.202-1.254-1.202
			c-0.953,0-1.304,0.858-1.304,2.06c0,1.188,0.384,1.945,1.304,1.945c0.709,0,1.008-0.396,1.203-1.005L149.049,87.036z"/>
		<path fill="#627384" d="M152.312,84.4h2.687c-0.031-0.856-0.513-1.367-1.317-1.367C152.855,83.033,152.342,83.544,152.312,84.4
			 M157.618,87.679c-0.511,0.691-1.716,1.813-3.938,1.813c-2.507,0-4.168-1.55-4.168-4.202c0-2.504,1.762-4.053,4.168-4.053
			c2.702,0,4.069,1.86,4.069,4.332c0,0.181,0,0.298-0.017,0.479h-5.407c0.084,0.906,0.76,1.303,1.583,1.303
			c0.875,0,1.4-0.429,1.716-0.94L157.618,87.679z"/>
		<path fill="#627384" d="M2.983,100.59c0.41-0.575,1.204-1.059,2.24-1.059c0.974,0,1.748,0.317,2.208,1.024
			c0.412-0.428,1.172-1.024,2.589-1.024c0.955,0,1.663,0.25,2.125,0.76c0.493,0.562,0.69,1.154,0.69,2.852v4.436H9.821v-4.451
			c0-0.757-0.098-1.314-0.889-1.314c-0.609,0-1.003,0.412-1.003,1.169v4.598H4.911v-4.45c0-0.758-0.1-1.315-0.889-1.315
			c-0.644,0-1.006,0.462-1.006,1.284v4.481H0v-7.842h2.982L2.983,100.59L2.983,100.59z"/>
		<path fill="#627384" d="M18.03,105.646c0.923,0,1.304-0.872,1.304-2.01c0-1.141-0.381-2.013-1.304-2.013
			c-0.921,0-1.285,0.872-1.285,2.013C16.744,104.774,17.109,105.646,18.03,105.646 M18.03,99.519c2.57,0,4.285,1.598,4.285,4.151
			c0,2.57-1.681,4.104-4.285,4.104c-2.602,0-4.267-1.533-4.267-4.104C13.763,101.115,15.46,99.519,18.03,99.519"/>
		<path fill="#627384" d="M27.641,101.61c-0.892,0-1.401,0.809-1.401,2.028c0,1.202,0.509,2.009,1.401,2.009
			c0.89,0,1.302-0.738,1.302-2.009C28.942,102.382,28.53,101.61,27.641,101.61 M28.546,107.772c-1.137,0-1.895-0.511-2.257-0.906
			v0.709h-3.017V96.369h3.017v4.087c0.378-0.461,1.152-0.938,2.29-0.938c2.011,0,3.413,1.534,3.413,4.151
			C31.993,106.238,30.623,107.772,28.546,107.772"/>
	</g>
	<path fill="#627384" d="M32.949,99.73v7.845h3.031l-0.034-7.845H32.949z M32.949,96.372v2.503h3.031l-0.034-2.503H32.949z"/>
	<polygon fill="#627384" points="37.597,96.372 37.597,107.575 40.629,107.575 40.596,96.372 	"/>
	<path fill="#627384" d="M42.244,99.73v7.845h3.031l-0.031-7.845H42.244z M42.244,96.372v2.503h3.031l-0.031-2.503H42.244z"/>
	<g>
		<path fill="#627384" d="M47.667,104.576c0.509,0.659,1.434,1.22,2.652,1.22c0.727,0,1.123-0.165,1.123-0.514
			c0-0.361-0.529-0.458-1.205-0.592l-1.036-0.214c-1.205-0.264-2.754-0.625-2.754-2.356c0-1.911,1.911-2.604,3.544-2.604
			c1.664,0,2.934,0.66,3.608,1.302l-1.434,1.486c-0.509-0.413-1.267-0.828-2.274-0.828c-0.46,0-0.905,0.136-0.905,0.464
			c0,0.364,0.445,0.445,1.136,0.576l1.154,0.229c1.382,0.28,2.602,0.808,2.602,2.355c0,1.862-1.648,2.67-3.674,2.67
			c-1.796,0-3.262-0.675-4.137-1.73L47.667,104.576z"/>
		<path fill="#627384" d="M58.661,105.646c0.922,0,1.303-0.872,1.303-2.01c0-1.141-0.381-2.013-1.303-2.013
			c-0.923,0-1.285,0.872-1.285,2.013C57.375,104.774,57.738,105.646,58.661,105.646 M58.661,99.519c2.57,0,4.285,1.598,4.285,4.151
			c0,2.57-1.681,4.104-4.285,4.104c-2.602,0-4.269-1.533-4.269-4.104C54.392,101.115,56.089,99.519,58.661,99.519"/>
		<path fill="#627384" d="M66.884,100.59c0.412-0.575,1.237-1.059,2.356-1.059c0.875,0,1.583,0.25,2.043,0.76
			c0.493,0.562,0.693,1.119,0.693,2.852v4.436h-3.017v-4.451c0-0.757-0.115-1.314-0.955-1.314c-0.693,0-1.089,0.459-1.089,1.284
			v4.481H63.9v-7.844h2.981v0.855H66.884z"/>
		<path fill="#627384" d="M74.434,104.576c0.511,0.659,1.436,1.22,2.653,1.22c0.727,0,1.12-0.165,1.12-0.514
			c0-0.361-0.525-0.458-1.204-0.592l-1.037-0.214c-1.203-0.264-2.752-0.625-2.752-2.356c0-1.911,1.91-2.604,3.543-2.604
			c1.665,0,2.935,0.66,3.61,1.302l-1.435,1.486c-0.511-0.413-1.268-0.828-2.273-0.828c-0.461,0-0.905,0.136-0.905,0.464
			c0,0.364,0.444,0.445,1.134,0.576l1.156,0.229c1.383,0.28,2.604,0.808,2.604,2.355c0,1.862-1.648,2.67-3.676,2.67
			c-1.796,0-3.261-0.675-4.136-1.73L74.434,104.576z"/>
	</g>
	<rect x="81.309" y="101.94" fill="#627384" width="4.58" height="2.454"/>
	<g>
		<path fill="#627384" d="M90.141,100.59c0.412-0.575,1.237-1.059,2.356-1.059c0.876,0,1.583,0.25,2.044,0.76
			c0.494,0.562,0.693,1.119,0.693,2.852v4.436h-3.017v-4.451c0-0.757-0.116-1.314-0.955-1.314c-0.694,0-1.088,0.459-1.088,1.284
			v4.481H87.16v-7.844h2.98L90.141,100.59L90.141,100.59z"/>
		<path fill="#627384" d="M100.425,105.646c0.922,0,1.303-0.872,1.303-2.01c0-1.141-0.381-2.013-1.303-2.013
			c-0.923,0-1.285,0.872-1.285,2.013C99.14,104.774,99.504,105.646,100.425,105.646 M100.425,99.519c2.57,0,4.286,1.598,4.286,4.151
			c0,2.57-1.683,4.104-4.286,4.104c-2.602,0-4.268-1.533-4.268-4.104C96.159,101.115,97.855,99.519,100.425,99.519"/>
		<path fill="#627384" d="M110.711,106.719c-0.395,0.576-1.188,1.058-2.322,1.058c-0.875,0-1.583-0.25-2.045-0.759
			c-0.493-0.562-0.693-1.118-0.693-2.852v-4.433h3.018v4.433c0,0.758,0.099,1.316,0.938,1.316c0.365,0,0.677-0.132,0.859-0.411
			c0.148-0.231,0.214-0.542,0.214-0.971v-4.367h3.015v7.842h-2.983L110.711,106.719L110.711,106.719z"/>
		<path fill="#627384" d="M116.101,104.576c0.51,0.659,1.436,1.22,2.653,1.22c0.728,0,1.121-0.165,1.121-0.514
			c0-0.361-0.526-0.458-1.203-0.592l-1.037-0.214c-1.203-0.264-2.752-0.625-2.752-2.356c0-1.911,1.911-2.604,3.542-2.604
			c1.665,0,2.937,0.66,3.61,1.302l-1.436,1.486c-0.51-0.413-1.266-0.828-2.273-0.828c-0.46,0-0.906,0.136-0.906,0.464
			c0,0.364,0.446,0.445,1.137,0.576l1.153,0.229c1.387,0.28,2.604,0.808,2.604,2.355c0,1.862-1.648,2.67-3.676,2.67
			c-1.796,0-3.262-0.675-4.136-1.73L116.101,104.576z"/>
	</g>
	<path fill="#627384" d="M124.903,107.575h3.015v-2.552h-3.015V107.575z M124.903,96.372v4.991l0.279,3.067h2.49l0.245-3.067v-4.991
		H124.903z"/>
	<g>
		<path fill="#627384" d="M134.468,61.449l1.427-8.201c1.884-10.693,10.031-13.395,17.571-13.597
			c2.442-0.051,5.856-0.306,5.856-3.411c0-2.141-2.039-2.953-4.277-2.953c-2.548,0-5.094,0.865-5.908,3.819h-9.775
			c1.527-8.302,8.353-12.123,17.059-12.123c6.725,0,13.09,3.054,13.09,9.981c0,10.645-8.555,12.48-17.418,12.633
			c-2.395,0.103-5.806,1.223-6.568,5.348h11.662l1.527-4.178h8.403l-2.24,12.682H134.468L134.468,61.449z"/>
		<path fill="#627384" d="M181.425,46.169c-0.97,5.449,0.456,7.845,4.632,7.845c3.566,0,6.979-2.395,7.945-7.845l0.916-4.941
			c0.917-5.245-0.867-7.435-4.889-7.435c-3.514,0-6.775,2.14-7.74,7.54L181.425,46.169z M172.406,41.279
			c2.039-11.611,9.168-16.297,18.844-16.297c8.916,0,15.331,5.092,13.443,16.297l-0.812,4.839
			c-1.936,11.407-8.354,16.146-18.281,16.146c-8.453,0-16.146-4.433-14.059-16.096L172.406,41.279z"/>
		<path fill="#627384" d="M220.686,45.406l-0.918-2.853l7.537-8.608h-8.555l-1.119,4.483h-8.455l2.24-12.633h29.591l-0.813,4.688
			l-8.709,10.541c3.769,1.478,6.009,3.718,6.009,7.794c0,6.622-4.277,13.646-17.875,13.646c-7.945,0-14.771-3.717-13.14-12.731
			h9.775c-0.455,2.902,1.834,4.38,4.993,4.38c3.207,0,6.112-1.425,6.112-5.145c0-2.29-1.53-3.562-4.024-3.562H220.686z"/>
		<path fill="#627384" d="M251.396,46.169c-0.967,5.449,0.455,7.845,4.635,7.845c3.562,0,6.978-2.395,7.943-7.845l0.914-4.941
			c0.92-5.245-0.863-7.435-4.887-7.435c-3.516,0-6.775,2.14-7.742,7.54L251.396,46.169z M242.38,41.279
			c2.038-11.611,9.168-16.297,18.845-16.297c8.914,0,15.328,5.092,13.446,16.297l-0.815,4.839
			c-1.936,11.407-8.354,16.146-18.283,16.146c-8.454,0-16.146-4.433-14.055-16.096L242.38,41.279z"/>
		<path fill="#627384" d="M64.178,15.931L75.606,2.956V2.954H60.201L48.747,16.072h7.378l-1.596,6.937
			c-0.351,2.26-0.967,4.933-2.247,11.952L34.913,2.954H20.676L9.223,16.072h8.634L9.036,53.703l-8.711,7.746h23.887L27.21,48.41
			l1.326-5.765l2.673-12.703l17.068,31.504h13.871L72.622,15.93L64.178,15.931L64.178,15.931z M130.069,22.591l4.519-19.637H89.464
			L77.88,53.295l-9.167,8.154h53.505l4.556-19.804H114.24l-1.681,5.848H95.848l2.038-8.859h14.04l2.961-12.866h-14.041l2.077-9.025
			h15.625l-1.013,5.85L130.069,22.591L130.069,22.591z"/>
	</g>
</g>
</svg>
