<?xml version="1.0" encoding="utf-8"?>
<!-- Generator: Adobe Illustrator 16.0.4, SVG Export Plug-In . SVG Version: 6.00 Build 0)  -->
<!DOCTYPE svg PUBLIC "-//W3C//DTD SVG 1.1//EN" "http://www.w3.org/Graphics/SVG/1.1/DTD/svg11.dtd">
<svg version="1.1" id="Calque_1" xmlns="http://www.w3.org/2000/svg" xmlns:xlink="http://www.w3.org/1999/xlink" x="0px" y="0px"
	 width="180px" height="57.325px" viewBox="0 0 180 57.325" enable-background="new 0 0 180 57.325" xml:space="preserve">
<g>
	<path fill="#FFFFFF" d="M110.575,39.99h8.284v-8.497h-8.284V39.99z M61.358,10.429l-1.241,0.21l-1.206,0.303l-0.556,0.213
		l-0.558,0.258l-0.557,0.343l-0.561,0.301l-0.427,0.341l-0.472,0.474l-0.476,0.385l-0.384,0.516l-0.387,0.472l-0.343,0.56
		l-0.516-3.733h-5.792v29.005h6.907V26.305l0.089-1.978l0.126-1.028l0.129-0.987l0.261-0.944l0.296-0.858l0.432-0.771l0.428-0.73
		l0.475-0.558l0.598-0.603l0.645-0.385l0.73-0.34l0.771-0.22l0.943-0.126l0.56,0.085l0.686,0.041l0.517,0.131l0.469,0.131
		l0.431,0.213l0.428,0.258l0.302,0.344l0.256,0.301l0.26,0.343l0.211,0.472l0.22,0.385l0.126,0.516l0.171,1.073l0.085,1.243v17.765
		h6.826V19.608l-0.132-1.029l-0.212-1.074l-0.301-0.9l-0.343-0.944l-0.474-0.856l-1.028-1.547l-0.688-0.6l-0.771-0.6l-0.774-0.516
		l-0.855-0.387l-0.943-0.343l-0.944-0.257l-1.072-0.125l-1.117-0.044L61.358,10.429z M85.689,21.713l0.084-0.604l0.13-0.601
		l0.129-0.555l0.214-0.559l0.258-0.432l0.303-0.514l0.343-0.471l0.386-0.475l0.469-0.471l0.513-0.301l0.517-0.343l0.689-0.255
		l0.642-0.217l0.732-0.129h1.415l0.684,0.129l0.648,0.17l0.512,0.173l0.514,0.217l0.475,0.299l0.383,0.257l0.429,0.429l0.389,0.431
		l0.3,0.557l0.558,1.118l0.172,0.642l0.128,0.644l0.132,0.73v0.773H85.645L85.689,21.713z M91.869,10.385l-1.376,0.044l-1.328,0.21
		l-1.245,0.259l-1.158,0.427l-1.117,0.56l-0.984,0.56l-0.902,0.728l-0.859,0.814l-0.943,1.031l-0.428,0.598l-0.431,0.646l-0.3,0.642
		l-0.343,0.688l-0.601,1.372l-0.432,1.503l-0.345,1.502l-0.211,1.629l-0.044,1.673l0.044,1.675l0.258,1.632l0.343,1.586l0.472,1.463
		l0.648,1.412l0.34,0.686l0.383,0.56l0.388,0.689l0.472,0.514l0.516,0.601l0.473,0.515l0.901,0.729l0.944,0.731l0.94,0.558
		l1.076,0.557l1.114,0.386l1.242,0.255l1.33,0.174l1.374,0.086l1.292-0.086l1.326-0.128l1.288-0.301l1.289-0.386l1.157-0.6
		l0.598-0.26l0.518-0.384l0.514-0.434l0.561-0.429l0.429-0.469l0.943-1.032l0.388-0.597l0.384-0.689l0.346-0.643l0.3-0.731
		l0.212-0.686l0.171-0.687l0.172-0.644h-6.521l-0.257,0.732l-0.344,0.598l-0.3,0.557l-0.474,0.469l-0.384,0.349l-0.383,0.3
		l-0.435,0.215l-1.025,0.346l-0.518,0.126l-0.688,0.043h-0.686l-0.687-0.043l-0.56-0.086l-0.598-0.215l-0.513-0.171l-0.562-0.257
		l-0.428-0.258l-0.432-0.349l-0.896-0.897l-0.774-1.201l-0.258-0.73l-0.303-0.729l-0.126-0.771l-0.044-0.773l-0.084-0.815h18.922
		l0.043-1.888V24.16l-0.043-1.333l-0.129-1.243l-0.257-1.246l-0.343-1.201l-0.386-1.243l-0.601-1.16l-0.729-1.117l-0.432-0.642
		l-0.472-0.601l-0.517-0.602l-0.558-0.516l-0.558-0.475l-0.603-0.384l-0.641-0.385l-0.688-0.386l-0.643-0.303l-0.646-0.254
		l-0.727-0.259l-1.457-0.257l-0.777-0.125l-0.814-0.044H91.869z M136.58,10.385l-0.814,0.044l-0.777,0.125l-0.729,0.129
		l-0.729,0.214l-0.644,0.257l-1.331,0.516l-1.243,0.646l-1.029,0.812l-0.942,0.859l-0.82,0.816l-0.729,1.071l-0.684,1.119
		l-0.515,1.155l-0.391,1.33l-0.343,1.33l-0.252,1.416l-0.132,1.46l-0.043,1.503l0.043,1.587l0.132,1.412l0.252,1.46l0.343,1.333
		l0.391,1.243l0.515,1.245l0.684,1.115l0.729,1.031l0.82,0.854l0.942,0.86l1.029,0.731l1.243,0.686l1.331,0.555l0.644,0.172
		l0.729,0.217l0.729,0.172l0.777,0.128l0.814,0.086h1.543l0.812-0.086l0.733-0.128l0.687-0.129l0.726-0.172l0.646-0.26l0.687-0.254
		l0.643-0.301l1.114-0.646l1.118-0.771l0.902-0.86l0.814-0.854l0.429-0.643l0.426-0.731l0.389-0.729l0.26-0.771l0.252-0.815
		l0.22-0.818l0.126-0.855l0.046-0.818h-6.693l-0.045,0.73l-0.215,0.642l-0.174,0.688l-0.341,0.562l-0.345,0.426l-0.384,0.428
		l-0.469,0.34l-0.52,0.349l-0.601,0.258l-0.557,0.171l-0.729,0.086l-0.731,0.043l-0.64-0.043l-0.688-0.086l-0.558-0.171
		l-0.558-0.215l-0.431-0.257l-0.472-0.346l-0.386-0.298l-0.389-0.344l-0.558-0.73l-0.429-0.772l-0.343-0.856l-0.257-0.903
		l-0.129-0.946l-0.129-0.985l-0.086-0.987v-2.016l0.086-0.983l0.258-1.978l0.257-0.855l0.343-0.814l0.429-0.862l0.558-0.727
		l0.389-0.344l0.386-0.301l0.472-0.341l0.431-0.217l0.558-0.259l0.558-0.128l0.688-0.129h1.371l0.729,0.129l0.557,0.214l0.601,0.258
		l0.52,0.303l0.469,0.34l0.384,0.389l0.345,0.47l0.341,0.601l0.174,0.604l0.215,0.686l0.045,0.726h6.693l-0.046-0.77l-0.126-0.856
		l-0.22-0.858l-0.252-0.774l-0.26-0.817l-0.389-0.686l-0.426-0.73l-0.429-0.684l-0.814-0.902l-0.902-0.773l-1.118-0.812
		l-1.114-0.646l-0.643-0.257l-0.687-0.258l-0.646-0.257l-0.726-0.214l-0.687-0.129l-0.733-0.125l-0.812-0.044H136.58z M155.587,0
		v39.99h6.907V24.16l0.045-0.732l0.255-1.372l0.214-0.688l0.518-1.286l0.343-0.602l0.386-0.601l0.472-0.429l0.432-0.471l0.557-0.388
		l0.555-0.343l0.688-0.255l0.644-0.132l0.771-0.085l0.686,0.085l0.561,0.041l0.557,0.131l0.429,0.131l0.472,0.213l0.386,0.258
		l0.343,0.258l0.261,0.34l0.254,0.39l0.217,0.385l0.172,0.472l0.129,0.475l0.214,1.025l0.043,1.205V39.99h6.867V19.696l-0.172-1.073
		l-0.171-1.031l-0.346-0.94l-0.298-0.905l-0.477-0.856l-0.512-0.774l-0.561-0.726l-0.64-0.646l-0.774-0.601l-1.632-0.947
		l-0.943-0.299l-0.988-0.259l-1.029-0.128l-1.111-0.082l-1.117,0.082l-1.117,0.173l-1.115,0.343l-1.071,0.387l-0.988,0.516
		l-0.903,0.642L163.525,13l-0.386,0.39l-0.346,0.383l-0.3,0.472V0H155.587z"/>
	<path fill="#FFFFFF" d="M22.696,50.161v4.289l-0.042,0.386l-0.084,0.386l-0.13,0.346l-0.17,0.298l-0.343,0.26l-0.345,0.214
		l-0.386,0.129l-0.473,0.083l-0.513-0.083l-0.386-0.129l-0.343-0.214l-0.259-0.26l-0.173-0.298l-0.126-0.346l-0.173-0.386v-4.675
		h-0.516v4.203l0.087,0.601l0.042,0.475l0.217,0.426l0.257,0.343l0.384,0.343l0.385,0.26l0.562,0.129l0.553,0.043l0.604-0.043
		l0.472-0.129l0.472-0.26l0.3-0.343l0.257-0.343l0.212-0.426l0.131-0.475l0.044-0.601v-4.203H22.696z M25.659,53.636h1.972
		l0.733,0.086l0.256,0.043l0.302,0.171l0.214,0.169l0.213,0.26l0.132,0.258v0.817l-0.132,0.297l-0.213,0.263l-0.258,0.209
		l-0.257,0.131l-0.343,0.083l-0.646,0.046h-1.972V53.636z M25.659,50.633h1.972l0.903,0.131l0.258,0.126l0.213,0.126l0.256,0.517
		l0.087,0.346l-0.087,0.344l-0.042,0.294l-0.427,0.432l-0.258,0.131l-0.257,0.043l-0.646,0.086h-1.972V50.633z M25.146,50.161v6.821
		h2.485l0.472-0.043l0.432-0.089l0.387-0.126l0.427-0.257l0.303-0.26l0.213-0.343l0.13-0.386v-0.727l-0.088-0.263l-0.126-0.254
		l-0.128-0.169l-0.13-0.215l-0.26-0.217l-0.513-0.257l0.257-0.046l0.256-0.126l0.129-0.217l0.217-0.172l0.129-0.214l0.128-0.77
		l-0.084-0.431l-0.128-0.301l-0.261-0.34l-0.255-0.26l-0.387-0.215l-0.343-0.045l-0.384-0.083H25.146z M31.497,50.161v6.821h4.205
		v-0.515H32.01v-6.307H31.497z M75.004,50.244l-0.472,0.129l-0.431,0.214l-0.388,0.303l-0.299,0.257l-0.17,0.344l-0.131,0.345
		l-0.126,0.298l-0.089,0.731l-0.04,0.729l0.04,0.729l0.089,0.688l0.257,0.683l0.17,0.306l0.299,0.295l0.388,0.303l0.431,0.214
		l0.472,0.129l0.516,0.043l0.472-0.043l0.474-0.089l0.427-0.168l0.346-0.261l0.343-0.343l0.173-0.386l0.126-0.386l0.13-0.472h-0.516
		l-0.044,0.386l-0.129,0.346l-0.214,0.258l-0.259,0.254l-0.255,0.215l-0.343,0.128l-0.299,0.046l-0.432,0.083l-0.43-0.083
		l-0.343-0.046l-0.387-0.214l-0.514-0.515l-0.133-0.254l-0.169-0.261l-0.041-0.343l-0.089-0.64l-0.044-0.604l0.044-0.603
		l0.089-0.641l0.041-0.346l0.169-0.26l0.133-0.254l0.17-0.258l0.344-0.257l0.301-0.129l0.429-0.131l0.43-0.083l0.432,0.083
		l0.299,0.048l0.343,0.126l0.255,0.214l0.259,0.258l0.214,0.26l0.129,0.34l0.044,0.389h0.516l-0.13-0.472l-0.126-0.388l-0.173-0.387
		l-0.343-0.34l-0.346-0.26l-0.427-0.131l-0.474-0.129l-0.472-0.083L75.004,50.244z M81.186,50.89l1.5,3.818h-3.003L81.186,50.89z
		 M80.926,50.161l-2.704,6.821h0.6l0.644-1.761h3.433l0.645,1.761h0.513l-2.613-6.821H80.926z M89.765,50.161v6.047l-4.077-6.047
		h-0.557v6.821h0.516v-6.007l3.989,6.007h0.602v-6.821H89.765z M91.354,50.161v0.472h2.229v6.35h0.517v-6.35h2.229v-0.472H91.354z
		 M98.562,56.339l-0.343-0.131l-0.3-0.209l-0.215-0.263l-0.169-0.297l-0.134-0.261l-0.086-0.343l-0.043-0.64l-0.083-0.604
		l0.083-0.646l0.043-0.684l0.086-0.303l0.303-0.6l0.215-0.215l0.3-0.257l0.343-0.126l0.386-0.131h0.814l0.386,0.131l0.3,0.126
		l0.346,0.257l0.215,0.215l0.3,0.6l0.083,0.303l0.046,0.684l0.083,0.646l-0.083,0.604l-0.046,0.64l-0.083,0.343l-0.126,0.261
		l-0.174,0.297l-0.215,0.263l-0.346,0.209l-0.3,0.131l-0.386,0.129h-0.814L98.562,56.339z M98.821,50.161l-0.434,0.128l-0.469,0.298
		l-0.346,0.26l-0.258,0.257l-0.211,0.301l-0.175,0.34l-0.086,0.343l-0.126,0.731l-0.045,0.774l0.045,0.729l0.126,0.688l0.086,0.343
		l0.175,0.34l0.211,0.306l0.258,0.295l0.346,0.303l0.469,0.214l0.434,0.129l0.512,0.043l0.558-0.043l0.517-0.129l0.386-0.214
		l0.344-0.303l0.254-0.295l0.172-0.306l0.22-0.34l0.126-0.343l0.086-0.688l0.04-0.729l-0.04-0.774l-0.086-0.731l-0.126-0.343
		l-0.22-0.34l-0.172-0.301l-0.254-0.257l-0.344-0.26l-0.386-0.298l-0.517-0.128H98.821z M108.215,50.161v6.047l-4.075-6.047h-0.603
		v6.821h0.56v-6.007l4.032,6.007h0.558v-6.821H108.215z M0.599,50.587h2.021l0.383,0.046l0.346,0.083l0.34,0.131l0.259,0.129
		l0.172,0.171l0.214,0.258l0.087,0.34v0.648l-0.087,0.343L4.119,52.99l-0.172,0.217l-0.259,0.172l-0.34,0.083l-0.346,0.045
		l-0.383,0.086H0.599V50.587z M0.086,50.115v6.824h0.513v-2.872h2.403l1.419,2.872h0.513l-1.372-3.004l0.256-0.171l0.301-0.129
		l0.214-0.174l0.26-0.212l0.256-0.515l0.084-0.343l0.044-0.306l-0.044-0.383l-0.128-0.429l-0.211-0.3l-0.26-0.343l-0.343-0.215
		l-0.384-0.174l-0.472-0.083l-0.516-0.046H0.086z M6.479,50.115v6.824h4.419v-0.472H7.039v-2.875h3.388v-0.472H7.039v-2.488h3.859
		v-0.518H6.479z M12.916,50.633h2.317l0.343,0.083l0.3,0.131l0.257,0.129l0.214,0.171l0.128,0.258l0.131,0.34v0.771l-0.131,0.303
		l-0.128,0.26l-0.214,0.255l-0.257,0.129l-0.3,0.131l-0.343,0.043h-2.317V50.633z M12.399,50.115v6.824h0.516v-2.743h1.932
		l0.427-0.092l0.474-0.037l0.385-0.215l0.343-0.217l0.343-0.257l0.173-0.301l0.129-0.474l0.085-0.472l-0.085-0.429l-0.129-0.472
		l-0.173-0.343l-0.686-0.517l-0.385-0.129l-0.474-0.083l-0.427-0.046H12.399z M36.817,56.939h0.513v-6.827h-0.513V56.939z
		 M50.076,50.115v4.249l-0.088,0.389l-0.043,0.426l-0.127,0.389l-0.214,0.258L49.3,56.079l-0.341,0.215l-0.389,0.128l-0.47,0.046
		l-0.469-0.046l-0.433-0.128l-0.343-0.215l-0.259-0.254l-0.215-0.258l-0.128-0.389l-0.129-0.426v-4.638H45.61v4.249l0.047,0.518
		l0.082,0.472l0.214,0.472l0.26,0.383l0.771,0.517l0.516,0.126l0.601,0.089l0.602-0.089l0.472-0.126l0.431-0.257l0.341-0.26
		l0.257-0.383l0.218-0.472l0.125-0.472l0.045-0.518v-4.249H50.076z M52.521,50.115v6.824h4.461v-0.472h-3.948v-2.875h3.476v-0.472
		h-3.476v-2.488h3.948v-0.518H52.521z M60.459,50.115v6.824h4.463v-0.472h-3.95v-2.875h3.478v-0.472h-3.478v-2.488h3.95v-0.518
		H60.459z M65.479,50.115v0.518h2.228v6.307h0.56v-6.307h2.233v-0.518H65.479z M113.324,50.587h2.229l0.686,0.26l0.3,0.257
		l0.215,0.172l0.3,0.603l0.086,0.344l0.043,0.643v1.332l-0.043,0.64l-0.086,0.343l-0.129,0.301l-0.171,0.257l-0.215,0.263
		l-0.3,0.209l-0.343,0.214l-0.343,0.046l-0.389,0.083h-1.841V50.587z M112.807,50.115v6.824h2.358l0.517-0.089l0.469-0.126
		l0.389-0.174l0.386-0.257l0.432-0.601l0.169-0.34l0.083-0.389l0.131-0.729v-1.418l-0.131-0.731l-0.083-0.343l-0.169-0.34
		l-0.217-0.301l-0.215-0.34l-0.386-0.26l-0.389-0.215l-0.469-0.128l-0.517-0.046H112.807z M119.24,50.115v6.824h4.466v-0.518h-3.949
		v-2.915h3.476v-0.429h-3.476v-2.491h3.949v-0.472H119.24z M40.765,56.339l-0.343-0.131l-0.346-0.257l-0.256-0.258l-0.129-0.254
		l-0.131-0.344l-0.044-0.343l-0.126-0.648v-1.24l0.126-0.643l0.044-0.344l0.131-0.257l0.129-0.346l0.256-0.172l0.346-0.257
		l0.343-0.131l0.388-0.129h0.77l0.344,0.129l0.384,0.131l0.262,0.257l0.254,0.172l0.129,0.346l0.303,0.601l0.04,0.643v1.24
		l-0.04,0.604l-0.214,0.646l-0.129,0.254l-0.217,0.258l-1.029-1.243l-0.343,0.26l0.984,1.243l-0.254,0.169l-0.262,0.128
		l-0.343,0.046h-0.639L40.765,56.339z M40.935,50.115l-0.431,0.129l-0.428,0.26l-0.385,0.26l-0.257,0.252l-0.173,0.346l-0.13,0.343
		l-0.17,0.3l-0.132,0.814v1.418l0.132,0.729l0.17,0.389l0.13,0.34l0.173,0.306l0.257,0.295l0.385,0.257l0.428,0.26l0.431,0.129
		h0.987l0.385-0.089l0.343-0.126l0.343-0.174l0.645,0.774l0.388-0.257l-0.642-0.774l0.214-0.343l0.17-0.344l0.213-0.3l0.045-0.343
		l0.128-0.729v-1.418l-0.128-0.814l-0.129-0.3l-0.129-0.343l-0.17-0.346l-0.303-0.252l-0.772-0.52l-0.47-0.129l-0.52-0.086
		L40.935,50.115z M7.769,49.344l0.128,0.26l1.629-0.988l-0.26-0.386L7.769,49.344z"/>
	<path fill="#E52322" d="M131.131,50.115v5.495l-3.436-5.495h-0.902v6.824h0.776v-5.535l3.344,5.535h0.989v-6.824H131.131z
		 M133.788,50.115v6.824h4.593v-0.817h-3.732v-2.357h3.301v-0.817h-3.301V50.89h3.732v-0.774H133.788z M143.787,50.115v4.593
		l-0.086,0.386l-0.128,0.257l-0.175,0.26l-0.217,0.209l-0.252,0.177l-0.386,0.086l-0.389,0.04l-0.431-0.04l-0.298-0.086
		l-0.343-0.177l-0.174-0.209l-0.218-0.26l-0.209-0.643v-4.593h-0.816v4.204l0.045,0.557l0.126,0.561l0.215,0.429l0.26,0.432
		l0.38,0.257l0.392,0.171l0.512,0.126l0.56,0.089l0.515-0.089l0.512-0.126l0.392-0.171l0.383-0.257l0.303-0.432l0.172-0.429
		l0.128-0.561l0.083-0.557v-4.204H143.787z M148.119,50.115l-0.471,0.172l-0.472,0.217l-0.389,0.343l-0.252,0.255l-0.217,0.26
		l-0.175,0.343l-0.083,0.3l-0.134,0.727v1.506l0.134,0.729l0.083,0.386l0.175,0.26l0.217,0.343l0.252,0.26l0.389,0.341l0.472,0.171
		l0.471,0.126l0.518,0.089l0.512-0.089l0.518-0.126l0.428-0.26l0.387-0.252l0.257-0.348l0.214-0.298l0.132-0.389l0.043-0.471h-0.906
		v0.257l-0.083,0.257l-0.128,0.215l-0.129,0.174l-0.255,0.209l-0.262,0.177l-0.384,0.086l-0.343,0.04l-0.389-0.04l-0.343-0.086
		l-0.257-0.131l-0.26-0.255l-0.212-0.174l-0.132-0.258l-0.169-0.554l-0.088-0.561v-1.117l0.088-0.558l0.169-0.555l0.132-0.214
		l0.212-0.26l0.26-0.212l0.257-0.134l0.343-0.126h0.731l0.384,0.126l0.262,0.134l0.384,0.383l0.128,0.215l0.083,0.257v0.258h0.906
		l-0.043-0.427l-0.132-0.431l-0.3-0.303l-0.257-0.341l-0.301-0.257l-0.469-0.217l-0.477-0.126l-0.512-0.046H148.119z M156.57,50.115
		v2.832h-3.259v-2.832h-0.859v6.824h0.859v-3.175h3.259v3.175h0.859v-6.824H156.57z M161.379,50.976l1.243,3.518h-2.446
		L161.379,50.976z M160.91,50.115l-2.448,6.824h0.857l0.603-1.632h2.963l0.512,1.632h0.943l-2.446-6.824H160.91z M163.865,50.115
		v0.774h2.018v6.05h0.857v-6.05h2.061v-0.774H163.865z M169.829,50.115v6.824h4.596v-0.817h-3.735v-2.357h3.261v-0.817h-3.261V50.89
		h3.735v-0.774H169.829z M175.879,50.115v6.824H180v-0.857h-3.261v-5.967H175.879z M161.122,47.927l-1.246,1.328l0.429,0.389
		l0.989-1.111l1.074,1.111l0.426-0.389l-1.157-1.328H161.122z"/>
	<polygon fill="#E52322" points="29.607,10.512 23.557,39.988 35.358,39.988 41.408,10.555 	"/>
	<polygon fill="#FFFFFF" points="38.401,16.089 35.574,16.089 36.171,13.258 33.856,13.258 33.272,16.089 30.466,16.089 
		29.906,18.366 32.806,18.366 32.223,21.194 34.498,21.194 35.097,18.366 37.846,18.366 	"/>
	<polygon fill="#FFFFFF" points="17.936,10.512 11.799,39.947 23.555,39.988 29.607,10.512 	"/>
	<polygon fill="#00A984" points="0,39.988 11.799,39.988 17.849,10.556 6.05,10.512 	"/>
</g>
</svg>
