<?xml version="1.0" encoding="utf-8"?>
<!-- Generator: Adobe Illustrator 16.0.0, SVG Export Plug-In . SVG Version: 6.00 Build 0)  -->
<!DOCTYPE svg PUBLIC "-//W3C//DTD SVG 1.1//EN" "http://www.w3.org/Graphics/SVG/1.1/DTD/svg11.dtd">
<svg version="1.1" id="Calque_1" xmlns="http://www.w3.org/2000/svg" xmlns:xlink="http://www.w3.org/1999/xlink" x="0px" y="0px"
	 width="19px" height="19px" viewBox="128.5 45 19 19" enable-background="new 128.5 45 19 19" xml:space="preserve">
<path fill-rule="evenodd" clip-rule="evenodd" fill="#FFFFFF" d="M136.25,54.5c0-0.967,0.783-1.75,1.75-1.75s1.75,0.783,1.75,1.75
	s-0.783,1.75-1.75,1.75S136.25,55.467,136.25,54.5z"/>
<g>
	<path fill-rule="evenodd" clip-rule="evenodd" fill="#FFFFFF" d="M138,61.5c-3.86,0-7-3.141-7-7c0-3.86,3.14-7,7-7
		c3.859,0,7,3.14,7,7C145,58.359,141.859,61.5,138,61.5z"/>
	<path fill="#E62329" d="M138,49c3.033,0,5.5,2.467,5.5,5.5c0,3.032-2.467,5.5-5.5,5.5c-3.033,0-5.5-2.468-5.5-5.5
		C132.5,51.467,134.967,49,138,49 M138,46c-4.694,0-8.5,3.806-8.5,8.5s3.806,8.5,8.5,8.5s8.5-3.806,8.5-8.5S142.694,46,138,46
		L138,46z"/>
</g>
</svg>
