<?xml version="1.0" encoding="utf-8"?>
<!-- Generator: Adobe Illustrator 16.0.0, SVG Export Plug-In . SVG Version: 6.00 Build 0)  -->
<!DOCTYPE svg PUBLIC "-//W3C//DTD SVG 1.1//EN" "http://www.w3.org/Graphics/SVG/1.1/DTD/svg11.dtd">
<svg version="1.1" id="Calque_1" xmlns="http://www.w3.org/2000/svg" xmlns:xlink="http://www.w3.org/1999/xlink" x="0px" y="0px"
	 width="355px" height="96.073px" viewBox="0 0 355 96.073" enable-background="new 0 0 355 96.073" xml:space="preserve">
<g>
	<path fill="#E30613" d="M253.165,17.827h-5.383c-1.122,0-2.025,0.906-2.025,2.025V9.553c0-4.196-3.399-7.595-7.595-7.595h-65.105
		c-4.195,0-7.597,3.399-7.597,7.595v10.299c0-1.119-0.905-2.025-2.025-2.025h-5.383c-1.122,0-2.027,0.906-2.027,2.025v17.036
		c0,1.122,0.905,2.027,2.027,2.027h5.383c1.12,0,2.025-0.905,2.025-2.027v45.164c0,2.268,0.997,4.303,2.575,5.694v5.443
		c0,0.937,0.755,1.69,1.688,1.69h12.004c0.927,0,1.686-0.754,1.686-1.69v-3.538h44.389v3.538c0,0.937,0.76,1.69,1.69,1.69h12
		c0.936,0,1.694-0.754,1.694-1.69v-5.443c1.574-1.392,2.57-3.427,2.57-5.694V36.888c0,1.122,0.903,2.027,2.025,2.027h5.383
		c1.122,0,2.025-0.905,2.025-2.027V19.852C255.19,18.733,254.287,17.827,253.165,17.827"/>
	<path fill="#E30613" d="M144.204,45.723h-7.015c-1.397,0-2.531,1.134-2.531,2.531v1.378c-3.895-6.934-6.915-11.997-9.273-15.792
		c-1.588-2.733-4.525-4.431-7.683-4.431H82.268c-3.157,0-6.096,1.697-7.679,4.431c-2.365,3.795-5.378,8.858-9.278,15.792v-1.378
		c0-1.397-1.136-2.531-2.532-2.531h-7.013c-1.397,0-2.528,1.134-2.528,2.531v3.107c0,1.397,1.131,2.533,2.528,2.533h7.013
		c0.058,0,0.111-0.014,0.167-0.019c-1.255,2.263-2.584,4.693-4,7.32c-0.749,1.322-0.968,4.959-0.968,7.482l0.863,18.253
		c0,0.959,0.356,1.82,0.925,2.496v4.177c0,0.703,0.572,1.275,1.277,1.275h13.164c0.708,0,1.283-0.572,1.283-1.275v-2.841h48.994
		v2.841c0,0.703,0.57,1.275,1.275,1.275h13.166c0.71,0,1.278-0.572,1.278-1.275v-4.177c0.568-0.676,0.924-1.537,0.924-2.496
		l0.864-18.253c0-2.523-0.214-6.16-0.969-7.482c-1.415-2.627-2.747-5.058-3.995-7.32c0.052,0.005,0.104,0.019,0.161,0.019h7.015
		c1.401,0,2.533-1.136,2.533-2.533v-3.107C146.737,46.857,145.605,45.723,144.204,45.723"/>
	<path fill="#E30613" d="M281.332,82.872h55.536c4.047,0,7.32-3.282,7.32-7.324V19.746c0-4.044-3.273-7.325-7.32-7.325h-20.036
		V5.909h7.739c1.634,0,2.952-1.323,2.952-2.952c0-1.63-1.318-2.957-2.952-2.957h-30.946c-1.64,0-2.957,1.327-2.957,2.957
		c0,1.629,1.317,2.952,2.957,2.952h7.729v6.511h-20.022c-4.052,0-7.329,3.281-7.329,7.325v55.802
		C274.003,79.589,277.28,82.872,281.332,82.872 M354.739,94.084l-11.026-4.568c-1.275-0.525-2.649-0.796-4.027-0.796h-3.348
		l-5.197-3.753h-7.636l3.39,3.753h-35.603l3.395-3.753h-7.642l-5.187,3.753h-3.354c-1.383,0-2.747,0.271-4.027,0.796l-11.031,4.568
		c-0.414,0.172-0.298,0.796,0.158,0.796h90.981C355.042,94.88,355.163,94.256,354.739,94.084"/>
	<path fill="#FFFFFF" d="M177.509,20.679c-0.982,0-1.783,0.801-1.783,1.788v32.597c0,3.036,2.472,5.504,5.508,5.504h48.948
		c3.04,0,5.509-2.468,5.509-5.504V22.467c0-0.987-0.802-1.788-1.784-1.788H177.509z M230.182,62.952h-48.948
		c-4.354,0-7.893-3.539-7.893-7.888V22.467c0-2.298,1.87-4.173,4.168-4.173h56.397c2.301,0,4.168,1.875,4.168,4.173v32.597
		C238.074,59.413,234.535,62.952,230.182,62.952 M173.267,78.629h12.651v-2.835h-12.651V78.629z M225.502,78.629h12.646v-2.835
		h-12.646V78.629z M184.945,89.079h41.529v4.316c0,0.158,0.131,0.294,0.299,0.294h10.584c0.162,0,0.298-0.136,0.298-0.294v-5.346
		l0.405-0.354c1.183-1.048,1.862-2.557,1.862-4.13v-3.115c-0.354,0.349-0.848,0.563-1.383,0.563h-13.425
		c-1.104,0-1.997-0.895-1.997-1.998v-3.613c0-1.104,0.894-1.997,1.997-1.997h13.425c0.535,0,1.028,0.214,1.383,0.563V43.733h2.384
		c0,0.328,0.271,0.596,0.596,0.596h4.75c0.33,0,0.596-0.268,0.596-0.596V28.708c0-0.328-0.266-0.596-0.596-0.596h-4.75
		c-0.325,0-0.596,0.268-0.596,0.596h-2.384v-9.084c0-3.036-2.468-5.507-5.504-5.507h-57.418c-3.038,0-5.509,2.471-5.509,5.507v9.084
		h-2.384c0-0.328-0.268-0.596-0.596-0.596h-4.75c-0.328,0-0.596,0.268-0.596,0.596v15.024c0,0.328,0.268,0.596,0.596,0.596h4.75
		c0.328,0,0.596-0.268,0.596-0.596h2.384v30.236c0.356-0.35,0.848-0.563,1.388-0.563h13.42c1.104,0,2.002,0.894,2.002,1.997v3.613
		c0,1.104-0.898,1.998-2.002,1.998h-13.42c-0.54,0-1.031-0.215-1.388-0.563v3.115c0,1.573,0.683,3.082,1.87,4.13l0.4,0.354v5.346
		c0,0.163,0.128,0.294,0.296,0.294h10.584c0.167,0,0.303-0.136,0.303-0.294V89.079z M237.357,96.073h-10.584
		c-1.477,0-2.683-1.201-2.683-2.678v-1.933h-36.762v1.933c0,1.477-1.206,2.678-2.687,2.678h-10.584c-1.479,0-2.68-1.201-2.68-2.678
		v-4.298c-1.451-1.476-2.271-3.46-2.271-5.531V46.657c-0.195,0.037-0.391,0.056-0.596,0.056h-4.75c-1.641,0-2.979-1.334-2.979-2.979
		V28.708c0-1.646,1.339-2.979,2.979-2.979h4.75c0.205,0,0.4,0.019,0.596,0.061v-6.165c0-4.352,3.537-7.891,7.893-7.891h57.418
		c4.354,0,7.888,3.539,7.888,7.891v6.165c0.195-0.042,0.392-0.061,0.596-0.061h4.75c1.644,0,2.979,1.334,2.979,2.979v15.024
		c0,1.646-1.336,2.979-2.979,2.979h-4.75c-0.204,0-0.4-0.019-0.596-0.056v36.909c0,2.071-0.819,4.056-2.268,5.531v4.298
		C240.039,94.872,238.838,96.073,237.357,96.073"/>
	<path fill="#FFFFFF" d="M85.084,56.373h53.164c-2.847-5.043-5.44-9.46-7.725-13.127l-0.065-0.109
		c-0.654-1.129-1.864-1.829-3.166-1.829H96.036c-1.292,0-2.508,0.705-3.166,1.829l-0.068,0.114
		C90.514,46.931,87.915,51.348,85.084,56.373 M138.796,58.756H84.53c-0.729,0-1.383-0.377-1.753-1.006
		c-0.378-0.647-0.382-1.457-0.017-2.118c2.947-5.234,5.646-9.825,8.021-13.644c1.11-1.909,3.113-3.066,5.255-3.066h31.256
		c2.145,0,4.146,1.157,5.229,3.018c2.389,3.849,5.089,8.435,8.048,13.688c0.368,0.666,0.363,1.476-0.019,2.118
		C140.184,58.379,139.526,58.756,138.796,58.756 M72.668,52.717c-0.577,0-1.045,0.466-1.045,1.038v2.743
		c0,0.577,0.468,1.043,1.045,1.043l6.242-0.015l0.979-0.069v-3.702c0-0.572-0.465-1.038-1.038-1.038H72.668z M143.436,57.458
		l1.132,0.088l6.098-0.004c0.572,0,1.038-0.466,1.038-1.043v-2.743c0-0.572-0.466-1.038-1.038-1.038h-6.184
		c-0.578,0-1.046,0.466-1.046,1.038V57.458z M77.497,68.102c-0.052,0-0.114,0.042-0.114,0.116v2.454
		c0,0.274,0.205,0.517,0.478,0.563l12.406,2.118l-1.129-3.059c-0.168-0.442-0.559-0.76-1.031-0.815L77.497,68.102z M145.834,68.102
		h-0.019L135.22,69.48c-0.461,0.056-0.861,0.382-1.029,0.819l-1.125,3.06l12.402-2.123c0.275-0.047,0.476-0.284,0.476-0.563v-2.454
		C145.943,68.144,145.887,68.102,145.834,68.102 M88.87,90.061h45.593v3.692l11.48-0.064v-4.052l0.281-0.33
		c0.244-0.294,0.536-0.778,0.536-1.435l0.714-15.119c-0.423,0.429-0.978,0.722-1.606,0.834l-12.97,2.211
		c-0.806,0.14-1.579-0.204-2.03-0.847c-0.382-0.55-0.473-1.258-0.24-1.886l1.332-3.595c0.471-1.276,1.606-2.18,2.954-2.356
		l10.592-1.374c0.505-0.064,0.996,0.023,1.415,0.229c-0.032-0.079-0.065-0.149-0.096-0.214c-1.262-2.328-2.431-4.471-3.531-6.464
		l-1.064-1.923l-1.02-1.815c-3.015-5.351-5.755-10.023-8.158-13.881c-1.201-2.074-3.406-3.341-5.76-3.341H96.036
		c-2.356,0-4.554,1.267-5.741,3.312c-2.422,3.891-5.164,8.559-8.172,13.913l-1.02,1.812l-1.064,1.928
		c-1.102,1.988-2.274,4.131-3.524,6.44c-0.033,0.064-0.07,0.144-0.105,0.228c0.422-0.2,0.908-0.288,1.418-0.224l10.589,1.374
		c1.351,0.177,2.479,1.08,2.957,2.356l1.329,3.595c0.235,0.628,0.145,1.336-0.242,1.886c-0.449,0.646-1.22,0.986-2.025,0.847
		l-12.976-2.211c-0.628-0.112-1.183-0.41-1.602-0.834l0.71,15.059c0.005,0.722,0.291,1.201,0.533,1.49l0.282,0.335v4.116
		l11.548-0.064L88.87,90.061z M146.011,96.073h-11.615c-1.278,0-2.316-1.038-2.316-2.319v-1.309H91.254v1.309
		c0,1.281-1.045,2.319-2.323,2.319H77.322c-1.278,0-2.323-1.038-2.323-2.319v-3.282c-0.524-0.769-0.811-1.677-0.811-2.599
		l-0.764-16.041c0-1.681,0.096-5.639,1.008-7.245c0.876-1.635,1.726-3.186,2.535-4.661h-4.3c-1.888,0-3.43-1.541-3.43-3.427v-2.743
		c0-1.888,1.542-3.422,3.43-3.422h6.184c1.106,0,2.098,0.528,2.722,1.353c2.433-4.268,4.673-8.049,6.682-11.271
		c1.593-2.742,4.582-4.468,7.781-4.468h31.256c3.203,0,6.193,1.726,7.804,4.496c1.988,3.199,4.226,6.976,6.656,11.238
		c0.631-0.819,1.616-1.348,2.729-1.348h6.184c1.888,0,3.422,1.534,3.422,3.422v2.743c0,1.886-1.534,3.427-3.422,3.427h-4.306
		c0.815,1.476,1.663,3.036,2.55,4.68c0.863,1.522,0.996,5.149,0.996,7.171l-0.766,16.148c0.005,0.875-0.281,1.778-0.812,2.547v3.282
		C148.327,95.035,147.289,96.073,146.011,96.073"/>
	<path fill="#FFFFFF" d="M294.36,20.965h3.818v-3.362h-3.818V20.965z M300.562,23.349h-8.586v-8.13h8.586V23.349z M272.275,30.488
		c-0.932,0-1.686,0.752-1.686,1.679v26.437c0,2.905,2.365,5.271,5.271,5.271h40.822c2.906,0,5.267-2.365,5.267-5.271V32.167
		c0-0.927-0.754-1.679-1.676-1.679H272.275z M316.683,66.258H275.86c-4.224,0-7.655-3.433-7.655-7.655V32.167
		c0-2.242,1.825-4.062,4.07-4.062h47.998c2.239,0,4.06,1.82,4.06,4.062v26.437C324.333,62.826,320.896,66.258,316.683,66.258
		 M269.155,76.721h15.287v-3.069h-15.287V76.721z M284.689,79.105h-15.781c-1.178,0-2.137-0.959-2.137-2.138v-3.562
		c0-1.179,0.959-2.138,2.137-2.138h15.781c1.178,0,2.137,0.959,2.137,2.138v3.562C286.826,78.146,285.867,79.105,284.689,79.105
		 M308.102,76.721h15.282v-3.069h-15.282V76.721z M323.63,79.105h-15.775c-1.178,0-2.138-0.959-2.138-2.138v-3.562
		c0-1.179,0.96-2.138,2.138-2.138h15.775c1.179,0,2.138,0.959,2.138,2.138v3.562C325.768,78.146,324.809,79.105,323.63,79.105
		 M271.781,23.349c-2.905,0-5.266,2.361-5.266,5.269v49.211c0,2.906,2.36,5.271,5.266,5.271h48.985c2.901,0,5.262-2.365,5.262-5.271
		V28.618c0-2.907-2.36-5.269-5.262-5.269h-18.863v-8.13h8.014c0.782,0,1.416-0.633,1.416-1.411c0-0.782-0.634-1.415-1.416-1.415
		h-27.291c-0.782,0-1.415,0.633-1.415,1.415c0,0.778,0.633,1.411,1.415,1.411h8.014v8.13H271.781z M283.25,88.254h26.034
		l-2.505-2.771h-21.02L283.25,88.254z M260.309,93.689h71.917l-5.876-2.436c-0.982-0.405-2.025-0.615-3.102-0.615h-3.343
		l-4.577-3.311h-3.665l2.989,3.311h-36.771l2.993-3.311h-3.659l-4.587,3.311h-3.334c-1.08,0-2.118,0.21-3.097,0.615L260.309,93.689z
		 M336.389,96.073h-80.234c-0.754,0-1.383-0.517-1.531-1.248c-0.149-0.74,0.232-1.457,0.931-1.746l9.728-4.027
		c1.267-0.526,2.617-0.797,4.014-0.797h2.57l3.832-2.771h-3.916c-4.219,0-7.65-3.437-7.65-7.655V28.618
		c0-4.221,3.432-7.652,7.65-7.652h16.475v-3.362h-5.63c-2.1,0-3.8-1.701-3.8-3.795c0-2.093,1.7-3.799,3.8-3.799h27.291
		c2.096,0,3.8,1.707,3.8,3.799c0,2.094-1.704,3.795-3.8,3.795h-5.629v3.362h16.479c4.214,0,7.646,3.432,7.646,7.652v49.211
		c0,4.219-3.432,7.655-7.646,7.655h-3.926l3.837,2.771h2.57c1.393,0,2.743,0.271,4.01,0.797l9.727,4.027
		c0.694,0.284,1.081,1.006,0.932,1.746C337.767,95.556,337.143,96.073,336.389,96.073"/>
	<path fill="#E30613" d="M38.11,43.353l-4.742-2.717c-0.473-0.272-1.041-0.244-1.474,0.023c-0.521-0.282-2.161-0.979-4.44-0.242
		l-0.046,0.014c-0.044,0.019-4.468,1.77-8.021,1.793c-3.558-0.023-7.979-1.774-8.025-1.793l-0.042-0.014
		c-2.174-0.701-3.771-0.067-4.372,0.247c-0.436-0.272-1.003-0.301-1.483-0.028l-4.74,2.717c-0.691,0.396-0.929,1.278-0.533,1.97
		c0.266,0.463,0.748,0.724,1.248,0.724c0.245,0,0.491-0.06,0.715-0.19l4.745-2.717c0.429-0.247,0.683-0.683,0.72-1.134
		c0.31-0.177,1.579-0.727,3.315-0.173c0.37,0.147,4.051,1.579,7.667,1.842v1.197h-3.686c-0.792,0-1.427,0.638-1.427,1.425v1.215
		h5.155v6.966c-0.515,0.042-0.982,0.149-1.402,0.405c-0.756,0.471-1.192,1.299-1.453,2.766c-0.458,2.543-0.468,7.479-0.468,17.201
		h-5.87c-0.291,0-0.526,0.237-0.526,0.521v0.903c0,0.288,0.235,0.521,0.526,0.521h7.138c0.07,0,0.142-0.014,0.205-0.042v15.114
		c0,1.662,1.353,3.018,3.013,3.018h0.224c1.66,0,3.015-1.355,3.015-3.018V76.134c0.128,0.088,0.275,0.153,0.442,0.153
		c0.459,0,0.824-0.372,0.824-0.824v-0.409c0-2.408,0-4.526-0.004-6.389h4.268c0.291,0,0.526-0.238,0.526-0.526v-0.898
		c0-0.294-0.235-0.526-0.526-0.526h-4.277c-0.033-4.629-0.142-7.423-0.461-9.122c-0.268-1.43-0.731-2.272-1.493-2.724
		c-0.491-0.289-1.031-0.382-1.655-0.405v-6.952h5.378v-1.215c0-0.787-0.643-1.425-1.429-1.425h-3.949v-0.072
		c-0.023,0-0.054,0.004-0.082,0.004v-1.149c3.213-0.314,6.952-1.679,7.32-1.821c1.844-0.591,3.062,0.033,3.271,0.154
		c0.033,0.461,0.296,0.905,0.729,1.152l4.75,2.717c0.224,0.131,0.473,0.19,0.715,0.19c0.496,0,0.987-0.261,1.25-0.724
		C39.042,44.631,38.803,43.749,38.11,43.353"/>
	<path fill="#FFFFFF" d="M39.154,47.958l4.253,2.468l0.114-0.032c0.025-0.042,0.01-0.091-0.028-0.114l-4.199-2.407L39.154,47.958z
		 M15.854,47.876l-4.286,2.403c-0.044,0.023-0.059,0.076-0.035,0.118l0.121,0.028l4.2-2.407l0.009-0.138L15.854,47.876z
		 M26.4,77.028v15.189c0,0.81,0.659,1.472,1.474,1.472h0.201c0.81,0,1.474-0.662,1.474-1.472V76.045l1.125,0.755
		c0-1.919,0-3.623-0.005-5.137l-0.009-1.723c-0.028-3.632-0.104-6.365-0.386-7.864c-0.219-1.169-0.538-1.477-0.759-1.602
		c-0.205-0.126-0.465-0.182-0.906-0.201l-1.047-0.041l-0.617,0.051c-0.328,0.028-0.547,0.084-0.715,0.191
		c-0.232,0.144-0.528,0.456-0.743,1.644c-0.396,2.197-0.396,7.021-0.396,15.021v0.442L26.4,77.028z M28.074,96.073h-0.201
		c-2.128,0-3.857-1.732-3.857-3.855V80.054h-5.318c-0.91,0-1.653-0.74-1.653-1.652v-0.801c0-0.913,0.743-1.653,1.653-1.653h4.007
		c0.005-8.219,0.038-12.046,0.433-14.253c0.2-1.113,0.591-2.486,1.842-3.25c0.223-0.14,0.452-0.242,0.67-0.317v-4.004h-4.561v-2.274
		c0-0.82,0.405-1.551,1.029-1.993c-1.278-0.368-2.233-0.727-2.542-0.85c-0.447-0.138-1.139-0.147-1.511-0.057
		c-0.209,0.471-0.568,0.876-1.029,1.139l-4.203,2.407c-1.138,0.654-2.712,0.227-3.364-0.915c-0.677-1.183-0.268-2.693,0.915-3.371
		l4.195-2.407c0.568-0.323,1.265-0.405,1.888-0.232c0.911-0.354,2.643-0.577,4.254-0.059l0.114,0.037
		c0.391,0.154,3.9,1.483,6.675,1.504c2.756-0.021,6.265-1.35,6.656-1.504l0.114-0.037c0.71-0.232,1.432-0.347,2.137-0.347
		c0.925,0,1.674,0.193,2.188,0.4c0.619-0.168,1.307-0.081,1.87,0.237l4.2,2.407c1.183,0.683,1.592,2.193,0.914,3.371
		c-0.651,1.142-2.229,1.569-3.375,0.911l-4.2-2.403c-0.473-0.272-0.834-0.678-1.045-1.159c-0.356-0.084-0.962-0.079-1.544,0.104
		c0.005,0-0.835,0.321-2.061,0.683c0.745,0.426,1.246,1.222,1.246,2.133v2.274h-4.763v3.93c0.291,0.074,0.586,0.195,0.882,0.363
		c1.292,0.769,1.692,2.207,1.883,3.223c0.284,1.499,0.38,3.851,0.419,7.101h4.254c0.914,0,1.657,0.745,1.657,1.662v0.797
		c0,0.907-0.743,1.652-1.657,1.652h-4.231c0,1.351,0,2.831,0,4.471v0.358c0,0.777-0.463,1.448-1.125,1.751v12.786
		C31.932,94.34,30.2,96.073,28.074,96.073"/>
	<path fill="#36475A" d="M239.346,79.016c0,0.442-0.359,0.801-0.811,0.801H225.11c-0.442,0-0.801-0.358-0.801-0.801v-3.613
		c0-0.442,0.358-0.806,0.801-0.806h13.425c0.451,0,0.811,0.363,0.811,0.806V79.016z M187.11,79.016c0,0.442-0.363,0.801-0.806,0.801
		h-13.429c-0.445,0-0.802-0.358-0.802-0.801v-3.613c0-0.442,0.356-0.806,0.802-0.806h13.429c0.442,0,0.806,0.363,0.806,0.806V79.016
		z M174.535,22.467c0-1.644,1.33-2.98,2.974-2.98h56.397c1.645,0,2.976,1.337,2.976,2.98v32.597c0,3.692-2.998,6.696-6.7,6.696
		h-48.948c-3.701,0-6.698-3.004-6.698-6.696V22.467z M247.652,26.92h-4.75c-0.986,0-1.788,0.802-1.788,1.788v-9.082
		c0-3.702-2.998-6.7-6.695-6.7h-57.418c-3.702,0-6.7,2.998-6.7,6.7v9.082c0-0.986-0.801-1.788-1.788-1.788h-4.75
		c-0.987,0-1.788,0.802-1.788,1.788v15.024c0,0.991,0.801,1.788,1.788,1.788h4.75c0.987,0,1.788-0.797,1.788-1.788v39.833
		c0,2.002,0.878,3.79,2.27,5.02v4.81c0,0.819,0.664,1.485,1.488,1.485h10.584c0.824,0,1.494-0.666,1.494-1.485v-3.124h39.146v3.124
		c0,0.819,0.666,1.485,1.49,1.485h10.588c0.824,0,1.485-0.666,1.485-1.485v-4.81c1.388-1.229,2.268-3.018,2.268-5.02V43.733
		c0,0.991,0.802,1.788,1.788,1.788h4.75c0.987,0,1.788-0.797,1.788-1.788V28.708C249.44,27.722,248.64,26.92,247.652,26.92"/>
	<path fill="#36475A" d="M145.659,66.923c0.784-0.103,1.476,0.508,1.476,1.295v2.454c0,0.856-0.619,1.592-1.467,1.736l-12.97,2.217
		c-0.654,0.111-1.183-0.526-0.955-1.146l1.332-3.595c0.319-0.856,1.087-1.472,1.993-1.588L145.659,66.923z M90.635,74.625
		L77.66,72.409c-0.844-0.145-1.47-0.88-1.47-1.736v-2.454c0-0.787,0.696-1.397,1.479-1.295l10.591,1.374
		c0.91,0.116,1.679,0.731,1.993,1.588l1.329,3.595C91.811,74.099,91.286,74.737,90.635,74.625 M83.802,56.214
		c2.956-5.253,5.632-9.802,7.99-13.597l0.049-0.077c0.866-1.497,2.475-2.426,4.195-2.426h31.256c1.721,0,3.332,0.929,4.2,2.426
		l0.047,0.077c2.355,3.795,5.03,8.344,7.992,13.597c0.328,0.591-0.054,1.35-0.735,1.35H84.53
		C83.853,57.564,83.466,56.805,83.802,56.214 M150.665,51.525h-6.184c-1.236,0-2.238,1.001-2.238,2.23v1.216
		c-3.436-6.112-6.097-10.58-8.176-13.928c-1.402-2.407-3.991-3.904-6.775-3.904H96.036c-2.784,0-5.369,1.497-6.771,3.904
		c-2.084,3.348-4.745,7.815-8.184,13.928v-1.216c0-1.229-1.001-2.23-2.235-2.23h-6.179c-1.236,0-2.237,1.001-2.237,2.23v2.743
		c0,1.233,1.001,2.234,2.237,2.234h6.179c0.052,0,0.101-0.014,0.147-0.014c-1.102,1.993-2.272,4.14-3.527,6.449
		c-0.659,1.169-0.85,4.372-0.85,6.607l0.759,16.097c0,0.843,0.314,1.606,0.814,2.198v3.683c0,0.619,0.506,1.127,1.132,1.127h11.608
		c0.621,0,1.131-0.508,1.131-1.127v-2.5h43.209v2.5c0,0.619,0.506,1.127,1.125,1.127h11.615c0.624,0,1.124-0.508,1.124-1.127v-3.683
		c0.501-0.592,0.817-1.355,0.817-2.198l0.762-16.097c0-2.235-0.191-5.438-0.853-6.607c-1.25-2.31-2.424-4.456-3.529-6.449
		c0.054,0,0.096,0.014,0.149,0.014h6.184c1.233,0,2.23-1.001,2.23-2.234v-2.743C152.896,52.526,151.898,51.525,150.665,51.525"/>
	<path fill="#36475A" d="M267.968,73.406c0-0.521,0.419-0.945,0.94-0.945h15.781c0.521,0,0.944,0.424,0.944,0.945v3.562
		c0,0.521-0.423,0.94-0.944,0.94h-15.781c-0.521,0-0.94-0.419-0.94-0.94V73.406z M269.397,32.164c0-1.583,1.285-2.87,2.873-2.87
		h48.003c1.583,0,2.868,1.287,2.868,2.87v26.444c0,3.566-2.892,6.458-6.459,6.458H275.86c-3.566,0-6.463-2.892-6.463-6.458V32.164z
		 M293.168,16.412h6.202v5.743h-6.202V16.412z M324.575,73.406v3.562c0,0.521-0.419,0.94-0.945,0.94h-15.775
		c-0.526,0-0.945-0.419-0.945-0.94v-3.562c0-0.521,0.419-0.945,0.945-0.945h15.775C324.156,72.46,324.575,72.884,324.575,73.406
		 M271.781,84.288h48.985c3.566,0,6.454-2.892,6.454-6.459V28.618c0-3.571-2.888-6.463-6.454-6.463h-17.671v-5.743h6.821
		c1.439,0,2.607-1.164,2.607-2.605c0-1.438-1.168-2.607-2.607-2.607h-27.291c-1.443,0-2.612,1.169-2.612,2.607
		c0,1.441,1.169,2.605,2.612,2.605h6.822v5.743h-17.667c-3.571,0-6.463,2.892-6.463,6.463v49.211
		C265.318,81.396,268.21,84.288,271.781,84.288 M336.528,94.177l-9.728-4.022c-1.126-0.471-2.337-0.708-3.553-0.708h-2.956
		l-4.577-3.311h-6.738l2.994,3.311h-31.402l2.989-3.311h-6.733l-4.577,3.311h-2.957c-1.215,0-2.426,0.237-3.548,0.708l-9.731,4.022
		c-0.368,0.154-0.261,0.703,0.144,0.703h80.234C336.789,94.88,336.901,94.332,336.528,94.177"/>
	<path fill="#36475A" d="M44.085,49.246l-4.2-2.407c-0.419-0.239-0.92-0.214-1.302,0.019c-0.463-0.249-1.916-0.863-3.939-0.214
		l-0.037,0.014c-0.04,0.014-3.958,1.564-7.105,1.588c-3.146-0.023-7.066-1.574-7.104-1.588l-0.044-0.014
		c-1.92-0.619-3.336-0.059-3.867,0.224c-0.384-0.242-0.892-0.272-1.315-0.028l-4.196,2.407c-0.614,0.354-0.824,1.129-0.477,1.741
		c0.24,0.415,0.668,0.643,1.11,0.643c0.214,0,0.436-0.053,0.636-0.167l4.2-2.407c0.377-0.219,0.601-0.601,0.633-1.006
		c0.277-0.154,1.401-0.638,2.938-0.154c0.328,0.136,3.585,1.404,6.789,1.637v1.053h-3.267c-0.696,0-1.257,0.568-1.257,1.265v1.082
		h4.563v6.165c-0.458,0.037-0.869,0.131-1.241,0.363c-0.673,0.41-1.053,1.146-1.292,2.444c-0.405,2.254-0.414,6.626-0.414,15.236
		h-5.197c-0.258,0-0.463,0.209-0.463,0.461v0.801c0,0.256,0.205,0.466,0.463,0.466h6.321c0.067,0,0.13-0.015,0.186-0.042v13.387
		c0,1.472,1.197,2.668,2.666,2.668h0.201c1.469,0,2.666-1.196,2.666-2.668V78.281c0.114,0.074,0.247,0.13,0.396,0.13
		c0.405,0,0.729-0.325,0.729-0.726v-0.363c0-2.133,0-4.01-0.004-5.662h5.427c0.256,0,0.465-0.21,0.465-0.461v-0.797
		c0-0.256-0.209-0.466-0.465-0.466H31.85c-0.028-4.102-0.123-6.569-0.405-8.078c-0.238-1.267-0.65-2.012-1.325-2.412
		c-0.436-0.256-0.913-0.34-1.464-0.363v-6.151h4.763v-1.082c0-0.696-0.573-1.258-1.269-1.258h-3.495v-0.062
		c-0.023,0-0.049,0-0.072,0v-1.016c2.843-0.281,6.156-1.487,6.479-1.618c1.637-0.519,2.715,0.035,2.901,0.14
		c0.028,0.41,0.261,0.802,0.643,1.021l4.205,2.407c0.2,0.114,0.421,0.167,0.636,0.167c0.442,0,0.873-0.228,1.11-0.643
		C44.904,50.375,44.695,49.6,44.085,49.246"/>
</g>
</svg>
