<?xml version="1.0" encoding="utf-8"?>
<!-- Generator: Adobe Illustrator 16.0.4, SVG Export Plug-In . SVG Version: 6.00 Build 0)  -->
<!DOCTYPE svg PUBLIC "-//W3C//DTD SVG 1.1//EN" "http://www.w3.org/Graphics/SVG/1.1/DTD/svg11.dtd">
<svg version="1.1" id="Calque_1" xmlns="http://www.w3.org/2000/svg" xmlns:xlink="http://www.w3.org/1999/xlink" x="0px" y="0px"
	 width="17px" height="16px" viewBox="-2 0 17 16" enable-background="new -2 0 17 16" xml:space="preserve">
<g>
	<g>
		<path fill="#E30613" d="M13.604,1.231h-1.032v1.231h1.032c0.121,0,0.183,0.062,0.183,0.185v11.938
			c0,0.123-0.062,0.185-0.183,0.185H-0.604c-0.121,0-0.182-0.062-0.182-0.185V2.647c0-0.123,0.061-0.185,0.182-0.185h1.032V1.231
			h-1.032C-1.393,1.231-2,1.847-2,2.647v11.938C-2,15.385-1.393,16-0.604,16h14.207C14.393,16,15,15.385,15,14.585V2.647
			C15,1.847,14.393,1.231,13.604,1.231z M8.929,1.231H4.071v1.231h4.857V1.231z M2.25,4.308c0.364,0,0.607-0.246,0.607-0.615V0.616
			C2.857,0.246,2.614,0,2.25,0S1.643,0.246,1.643,0.616v3.077C1.643,4.062,1.886,4.308,2.25,4.308z M10.75,4.308
			c0.364,0,0.607-0.246,0.607-0.615V0.616C11.357,0.246,11.114,0,10.75,0s-0.607,0.246-0.607,0.616v3.077
			C10.143,4.062,10.386,4.308,10.75,4.308z M2.857,8.615H1.643v1.847h1.215V8.615z M5.893,8.615H4.679v1.847h1.214V8.615z
			 M8.929,8.615H7.715v1.847h1.214V8.615z M11.965,8.615H10.75v1.847h1.215V8.615z M2.857,11.693H1.643v1.847h1.215V11.693z
			 M4.679,13.539h1.214v-1.847H4.679V13.539z M7.715,13.539h1.214v-1.847H7.715V13.539z M10.75,13.539h1.215v-1.847H10.75V13.539z"
			/>
	</g>
</g>
</svg>
