<?xml version="1.0" encoding="utf-8"?>
<!-- Generator: Adobe Illustrator 16.0.4, SVG Export Plug-In . SVG Version: 6.00 Build 0)  -->
<!DOCTYPE svg PUBLIC "-//W3C//DTD SVG 1.1//EN" "http://www.w3.org/Graphics/SVG/1.1/DTD/svg11.dtd">
<svg version="1.1" id="Calque_1" xmlns="http://www.w3.org/2000/svg" xmlns:xlink="http://www.w3.org/1999/xlink" x="0px" y="0px"
	 width="17px" height="17px" viewBox="-1.5 -1 17 17" enable-background="new -1.5 -1 17 17" xml:space="preserve">
<g>
	<g>
		<path fill="#E30613" d="M7,1.854c-2.489,0-3.097,2.004-3.097,2.611h1.215c0,0,0.061-1.396,1.882-1.396
			c1.761,0,1.882,1.154,1.882,1.396v0.122c0,0.061,0.122,0.85-1.214,1.942C6.418,7.6,6.394,8.96,6.393,9.929h1.214V9.99
			c0-0.85,0-1.821,0.85-2.489c1.7-1.396,1.7-2.732,1.64-3.036C10.036,3.493,9.429,1.854,7,1.854z M6.393,9.99
			c0-0.02,0-0.041,0-0.061h0V9.99z M6.393,12.358h1.215v-1.215H6.393V12.358z M7-1C2.325-1-1.5,2.825-1.5,7.5S2.325,16,7,16
			s8.5-3.825,8.5-8.5S11.675-1,7-1z M7,14.785c-4.007,0-7.285-3.278-7.285-7.285S2.993,0.215,7,0.215s7.286,3.279,7.286,7.286
			S11.007,14.785,7,14.785z"/>
	</g>
</g>
</svg>
