<?xml version="1.0" encoding="utf-8"?>
<!-- Generator: Adobe Illustrator 16.0.0, SVG Export Plug-In . SVG Version: 6.00 Build 0)  -->
<!DOCTYPE svg PUBLIC "-//W3C//DTD SVG 1.1//EN" "http://www.w3.org/Graphics/SVG/1.1/DTD/svg11.dtd">
<svg version="1.1" xmlns="http://www.w3.org/2000/svg" xmlns:xlink="http://www.w3.org/1999/xlink" x="0px" y="0px"
	 width="367.755px" height="17.502px" viewBox="0 0 367.755 17.502" enable-background="new 0 0 367.755 17.502"
	 xml:space="preserve">
<g id="Calque_1">
</g>
<g id="noeuds">
	<g>
		<path fill-rule="evenodd" clip-rule="evenodd" fill="#36475A" d="M240.755,8.493h127v1h-127V8.493z"/>
		<path fill-rule="evenodd" clip-rule="evenodd" fill="#36475A" d="M0,8.493h127v1H0V8.493z"/>
		<g id="CJmbmv_1_">
			<g>
				<path fill-rule="evenodd" clip-rule="evenodd" fill="#E62329" d="M173.091,0.004c0,0.405,0.006,0.76-0.007,1.115
					c-0.002,0.053-0.084,0.127-0.145,0.15c-1.008,0.386-1.944,0.9-2.754,1.613c-1.539,1.354-2.566,3.014-2.863,5.069
					c-0.06,0.416-0.053,0.85-0.01,1.269c0.061,0.585,0.303,0.669,0.811,0.35c1.127-0.708,2.328-0.829,3.524-0.26
					c1.223,0.582,2.002,1.586,2.266,2.924c0.341,1.732-0.284,3.131-1.597,4.253c-0.942,0.805-2.056,1.095-3.269,0.996
					c-1.015-0.083-1.912-0.483-2.694-1.144c-1.286-1.087-1.96-2.495-2.169-4.139c-0.37-2.914,0.359-5.526,2.187-7.828
					c1.075-1.354,2.44-2.355,3.959-3.143c0.803-0.417,1.648-0.752,2.475-1.123C172.879,0.072,172.96,0.05,173.091,0.004z"/>
				<path fill-rule="evenodd" clip-rule="evenodd" fill="#E62329" d="M160.457,0c0,0.391,0.009,0.753-0.009,1.114
					c-0.003,0.058-0.115,0.134-0.191,0.164c-0.922,0.362-1.789,0.825-2.551,1.458c-1.579,1.312-2.639,2.949-3.001,4.988
					c-0.086,0.488-0.05,0.999-0.063,1.499c-0.002,0.074,0.027,0.152,0.053,0.224c0.117,0.322,0.318,0.393,0.617,0.222
					c0.242-0.138,0.47-0.309,0.726-0.41c1.764-0.701,3.567-0.095,4.636,1.542c1.059,1.621,0.844,3.778-0.492,5.189
					c-0.675,0.713-1.453,1.227-2.427,1.412c-1.419,0.27-2.711-0.027-3.856-0.905c-1.326-1.017-2.053-2.392-2.335-4.021
					c-0.154-0.892-0.177-1.791-0.085-2.686c0.198-1.941,0.896-3.69,2.091-5.238c1.308-1.692,3.024-2.848,4.932-3.746
					c0.553-0.26,1.124-0.482,1.688-0.72C160.265,0.056,160.346,0.036,160.457,0z"/>
			</g>
		</g>
		<g id="CJmbmv_2_">
			<g>
				<path fill-rule="evenodd" clip-rule="evenodd" fill="#E62329" d="M196.087,17.498c0-0.405-0.006-0.76,0.007-1.115
					c0.002-0.053,0.085-0.127,0.146-0.15c1.008-0.386,1.944-0.9,2.754-1.613c1.538-1.354,2.566-3.014,2.862-5.069
					c0.061-0.416,0.054-0.85,0.011-1.269c-0.061-0.585-0.304-0.669-0.811-0.35c-1.127,0.708-2.328,0.829-3.524,0.26
					c-1.223-0.582-2.002-1.586-2.266-2.924c-0.341-1.732,0.284-3.131,1.598-4.253c0.942-0.805,2.056-1.095,3.269-0.996
					c1.015,0.083,1.911,0.483,2.693,1.144c1.286,1.087,1.961,2.495,2.17,4.139c0.369,2.914-0.359,5.526-2.187,7.828
					c-1.075,1.354-2.44,2.355-3.959,3.143c-0.803,0.417-1.648,0.752-2.475,1.123C196.299,17.43,196.218,17.452,196.087,17.498z"/>
				<path fill-rule="evenodd" clip-rule="evenodd" fill="#E62329" d="M208.722,17.502c0-0.391-0.009-0.753,0.009-1.114
					c0.003-0.058,0.114-0.134,0.19-0.164c0.923-0.362,1.789-0.825,2.552-1.458c1.578-1.312,2.639-2.949,3.001-4.988
					c0.086-0.488,0.05-0.999,0.062-1.499c0.002-0.074-0.026-0.152-0.053-0.224c-0.117-0.322-0.318-0.393-0.617-0.222
					c-0.241,0.138-0.47,0.309-0.726,0.41c-1.765,0.701-3.567,0.095-4.637-1.542c-1.059-1.621-0.844-3.778,0.492-5.189
					c0.675-0.713,1.453-1.227,2.428-1.412c1.419-0.27,2.711,0.027,3.855,0.905c1.326,1.017,2.053,2.392,2.336,4.021
					c0.154,0.892,0.177,1.791,0.085,2.686c-0.198,1.941-0.896,3.69-2.091,5.238c-1.308,1.692-3.024,2.848-4.933,3.746
					c-0.553,0.26-1.123,0.482-1.688,0.72C208.913,17.447,208.832,17.467,208.722,17.502z"/>
			</g>
		</g>
	</g>
</g>
</svg>
