<?xml version="1.0" encoding="utf-8"?>
<!-- Generator: Adobe Illustrator 16.0.0, SVG Export Plug-In . SVG Version: 6.00 Build 0)  -->
<!DOCTYPE svg PUBLIC "-//W3C//DTD SVG 1.1//EN" "http://www.w3.org/Graphics/SVG/1.1/DTD/svg11.dtd">
<svg version="1.1" id="Calque_1" xmlns="http://www.w3.org/2000/svg" xmlns:xlink="http://www.w3.org/1999/xlink" x="0px" y="0px"
	 width="205px" height="80.342px" viewBox="0 0 205 80.342" enable-background="new 0 0 205 80.342" xml:space="preserve">
<g>
	<polygon fill="#36475A" points="119.873,3.047 124.458,3.047 124.03,5.538 122.729,5.538 121.651,11.679 122.951,11.679 
		122.506,14.155 116.779,14.155 117.224,11.679 118.54,11.679 119.286,7.364 115.858,10.744 115.541,10.744 113.352,7.379 
		112.605,11.679 113.938,11.679 113.494,14.155 107.767,14.155 108.21,11.679 109.511,11.679 110.591,5.538 109.29,5.538 
		109.718,3.047 114.161,3.047 116.319,6.775 	"/>
	<g>
		<path fill="#36475A" d="M130.885,5.475c-2.031,0-3.634,1.586-3.634,3.665c0,1.54,0.92,2.604,2.476,2.604
			c2.111,0,3.697-1.588,3.697-3.745C133.423,6.458,132.488,5.475,130.885,5.475 M129.441,14.424c-3.206,0-5.395-1.73-5.395-4.777
			c0-4.205,3.125-6.854,7.25-6.854c3.207,0,5.317,1.761,5.317,4.776C136.614,11.854,133.614,14.424,129.441,14.424"/>
		<path fill="#36475A" d="M141.77,7.332h2.491c0.571,0,1.205-0.349,1.205-1.032c0-0.412-0.269-0.792-0.824-0.792h-2.554
			L141.77,7.332z M140.992,11.759h2.651c0.904,0,1.396-0.668,1.396-1.303c0-0.602-0.413-0.935-1.016-0.935h-2.65L140.992,11.759z
			 M137.804,5.507l0.428-2.46h6.888c2.031,0,3.554,0.842,3.554,2.617c0,0.779-0.239,2.048-1.65,2.619
			c0.777,0.461,1.253,1.333,1.253,2.173c0,2.809-2.476,3.682-5.078,3.697h-6.918l0.445-2.475h1.207l1.077-6.172H137.804z"/>
		<path fill="#36475A" d="M150.037,5.507l0.428-2.46h5.777l-0.429,2.46h-1.317c-0.365,2.062-0.714,4.094-1.079,6.172h1.318
			l-0.445,2.475h-5.776l0.445-2.475h1.301c0.365-2.078,0.713-4.109,1.079-6.172H150.037z"/>
	</g>
	<polygon fill="#36475A" points="156.892,5.538 157.32,3.047 163.064,3.047 162.636,5.538 161.318,5.538 160.271,11.488 
		162.969,11.488 163.397,9.729 166.143,9.729 165.365,14.155 155.448,14.155 155.892,11.679 157.082,11.679 158.162,5.538 	"/>
	<g>
		<path fill="#36475A" d="M167.57,5.507l0.428-2.46h5.777l-0.429,2.46h-1.316c-0.365,2.062-0.715,4.094-1.08,6.172h1.317
			l-0.444,2.475h-5.776l0.445-2.475h1.301c0.365-2.078,0.713-4.109,1.078-6.172H167.57z"/>
	</g>
	<polygon fill="#36475A" points="185.278,3.047 184.515,7.347 181.866,7.347 182.057,5.713 181.009,5.713 179.963,11.679 
		181.264,11.679 180.819,14.155 175.028,14.155 175.471,11.679 176.79,11.679 177.836,5.713 176.757,5.713 176.377,7.347 
		173.728,7.347 174.488,3.047 	"/>
	<path fill="#36475A" d="M186.039,3.047l-0.428,2.458h1.222l-1.08,6.173h-1.222l-0.443,2.476h10.076l0.665-3.761h-2.506
		l-0.269,1.111h-3.175l0.303-1.682h2.665l0.428-2.443h-2.664l0.3-1.714h2.968l-0.127,1.11h2.381l0.648-3.729H186.039z M191.371,0
		l-1.46,2.174l-0.015,0.127h2.506l2.046-2.111L194.498,0H191.371z"/>
	<g>
		<path fill="#E30613" d="M4.803,64.207c0.098-0.208,0.135-0.454,0.135-1.205v-4.791H7.2v4.926c0,1.168-0.123,1.731-0.456,2.298
			c-0.552,0.921-1.842,1.278-3.133,1.278c-1.302,0-2.592-0.356-3.156-1.278C0.111,64.869,0,64.305,0,63.137v-4.926h2.271v4.791
			c0,0.751,0.038,0.997,0.136,1.205c0.161,0.418,0.652,0.614,1.204,0.614C4.165,64.821,4.644,64.625,4.803,64.207"/>
		<path fill="#E30613" d="M10.701,61.357c0.307-0.43,0.922-0.788,1.756-0.788c0.652,0,1.18,0.186,1.523,0.566
			c0.368,0.418,0.517,0.834,0.517,2.124v3.306h-2.249v-3.318c0-0.565-0.086-0.981-0.712-0.981c-0.517,0-0.811,0.343-0.811,0.957
			v3.342H8.478v-5.847h2.224V61.357z"/>
		<path fill="#E30613" d="M23.823,64.882c-0.221,0.812-1.032,1.831-2.887,1.831c-1.879,0-3.107-1.119-3.107-3.035
			c0-1.904,1.229-3.12,3.132-3.12c1.707,0,2.568,0.911,2.85,1.954l-1.868,0.528c-0.122-0.491-0.357-0.897-0.934-0.897
			c-0.712,0-0.971,0.64-0.971,1.536c0,0.885,0.284,1.45,0.971,1.45c0.528,0,0.75-0.295,0.897-0.749L23.823,64.882z"/>
		<path fill="#E30613" d="M27.817,63.985c-0.123,0.049-0.198,0.085-0.615,0.184l-0.147,0.038c-0.246,0.062-0.417,0.125-0.541,0.209
			c-0.123,0.098-0.196,0.221-0.196,0.43c0,0.355,0.221,0.601,0.699,0.601c0.503,0,0.799-0.233,0.799-0.687V63.985z M29.893,64.993
			c0,0.368,0.037,0.491,0.294,0.491h0.062v1.13c-0.271,0.049-0.589,0.086-0.994,0.086c-0.763,0-1.205-0.16-1.327-0.541
			c-0.196,0.208-0.664,0.553-1.597,0.553c-1.241,0-2.114-0.614-2.114-1.831c0-0.577,0.221-0.971,0.579-1.252
			c0.393-0.307,0.957-0.479,1.609-0.577l1.104-0.172c0.296-0.049,0.309-0.101,0.309-0.271v-0.123c0-0.38-0.247-0.541-0.701-0.541
			c-0.491,0-0.773,0.233-0.773,0.749l-1.979-0.012c-0.024-1.536,1.376-2.088,2.924-2.088c1.241,0,2.605,0.196,2.605,1.805V64.993z"
			/>
		<path fill="#E30613" d="M33.296,61.357c0.307-0.43,0.922-0.788,1.757-0.788c0.651,0,1.18,0.186,1.523,0.566
			c0.368,0.418,0.517,0.834,0.517,2.124v3.306h-2.249v-3.318c0-0.565-0.086-0.981-0.712-0.981c-0.517,0-0.811,0.343-0.811,0.957
			v3.342h-2.25v-5.847h2.225V61.357z"/>
		<path fill="#E30613" d="M40.902,64.367c0,0.332,0.037,0.49,0.147,0.601c0.123,0.135,0.355,0.174,0.64,0.174
			c0.246,0,0.417-0.026,0.491-0.039v1.486c-0.234,0.039-0.714,0.101-1.314,0.101c-0.775,0-1.585-0.101-1.904-0.529
			c-0.259-0.344-0.296-0.65-0.296-1.216v-2.702h-1.116v-1.522h1.116v-1.955l2.237-0.393v2.348h1.265v1.522h-1.265V64.367z"/>
		<path fill="#E30613" d="M45.657,65.128c0.688,0,0.971-0.65,0.971-1.498s-0.284-1.5-0.971-1.5c-0.687,0-0.959,0.652-0.959,1.5
			S44.97,65.128,45.657,65.128 M45.657,60.558c1.916,0,3.193,1.192,3.193,3.096c0,1.916-1.253,3.059-3.193,3.059
			s-3.181-1.143-3.181-3.059C42.476,61.75,43.741,60.558,45.657,60.558"/>
		<path fill="#E30613" d="M51.788,61.357c0.307-0.43,0.922-0.788,1.756-0.788c0.652,0,1.18,0.186,1.523,0.566
			c0.368,0.418,0.517,0.834,0.517,2.124v3.306h-2.249v-3.318c0-0.565-0.086-0.981-0.712-0.981c-0.517,0-0.812,0.343-0.812,0.957
			v3.342h-2.247v-5.847h2.222V61.357z"/>
		<path fill="#E30613" d="M59.099,64.133v1.437c0,0.812-0.049,1.303-0.16,1.708c-0.27,0.959-0.909,1.438-2.187,1.462v-1.105
			c0.676-0.049,1.105-0.345,1.105-1.068h-1.105v-2.433H59.099z"/>
		<path fill="#E30613" d="M66.016,65.926c-0.294,0.43-0.885,0.787-1.731,0.787c-0.652,0-1.18-0.186-1.524-0.565
			c-0.368-0.418-0.517-0.836-0.517-2.125v-3.305h2.249v3.305c0,0.565,0.074,0.982,0.699,0.982c0.272,0,0.505-0.099,0.64-0.307
			c0.111-0.172,0.16-0.405,0.16-0.724v-3.257h2.249v5.847h-2.225V65.926z"/>
		<path fill="#E30613" d="M71.62,61.357c0.307-0.43,0.922-0.788,1.756-0.788c0.652,0,1.18,0.186,1.523,0.566
			c0.368,0.418,0.517,0.834,0.517,2.124v3.306h-2.249v-3.318c0-0.565-0.086-0.981-0.712-0.981c-0.517,0-0.811,0.343-0.811,0.957
			v3.342h-2.249v-5.847h2.225V61.357z"/>
		<path fill="#E30613" d="M80.834,62.917h2.003c-0.025-0.639-0.382-1.019-0.983-1.019C81.24,61.898,80.858,62.278,80.834,62.917
			 M84.79,65.361c-0.38,0.516-1.278,1.352-2.936,1.352c-1.867,0-3.108-1.155-3.108-3.132c0-1.867,1.314-3.022,3.108-3.022
			c2.014,0,3.034,1.388,3.034,3.23c0,0.135,0,0.222-0.013,0.356h-4.03c0.062,0.676,0.566,0.971,1.18,0.971
			c0.653,0,1.045-0.319,1.278-0.701L84.79,65.361z"/>
		<path fill="#E30613" d="M86.425,64.33c0.379,0.491,1.069,0.909,1.977,0.909c0.542,0,0.836-0.123,0.836-0.382
			c0-0.269-0.393-0.343-0.898-0.441l-0.773-0.159c-0.897-0.196-2.052-0.466-2.052-1.757c0-1.425,1.425-1.941,2.642-1.941
			c1.241,0,2.187,0.493,2.69,0.971l-1.069,1.105c-0.38-0.306-0.944-0.614-1.695-0.614c-0.343,0-0.675,0.099-0.675,0.344
			c0,0.27,0.332,0.332,0.847,0.43l0.861,0.172c1.031,0.208,1.94,0.601,1.94,1.755c0,1.389-1.229,1.991-2.739,1.991
			c-1.339,0-2.431-0.505-3.083-1.29L86.425,64.33z"/>
		<path fill="#E30613" d="M94.891,62.13c-0.664,0-1.045,0.588-1.045,1.5c0,0.897,0.381,1.498,1.045,1.498
			c0.663,0,0.969-0.553,0.969-1.498C95.86,62.695,95.554,62.13,94.891,62.13 M95.566,66.713c-0.86,0-1.413-0.381-1.683-0.676v2.738
			h-2.249v-8.058h2.249v0.553c0.283-0.345,0.859-0.7,1.708-0.7c1.499,0,2.543,1.13,2.543,3.083
			C98.134,65.57,97.114,66.713,95.566,66.713"/>
		<path fill="#E30613" d="M102.238,63.985c-0.123,0.049-0.198,0.085-0.616,0.184l-0.146,0.038c-0.246,0.062-0.417,0.125-0.541,0.209
			c-0.123,0.098-0.196,0.221-0.196,0.43c0,0.355,0.221,0.601,0.699,0.601c0.503,0,0.799-0.233,0.799-0.687V63.985z M104.314,64.993
			c0,0.368,0.037,0.491,0.294,0.491h0.062v1.13c-0.27,0.049-0.589,0.086-0.994,0.086c-0.763,0-1.205-0.16-1.328-0.541
			c-0.196,0.208-0.664,0.553-1.597,0.553c-1.241,0-2.114-0.614-2.114-1.831c0-0.577,0.221-0.971,0.578-1.252
			c0.393-0.307,0.958-0.479,1.61-0.577l1.104-0.172c0.296-0.049,0.309-0.101,0.309-0.271v-0.123c0-0.38-0.247-0.541-0.701-0.541
			c-0.492,0-0.773,0.233-0.773,0.749l-1.979-0.012c-0.025-1.536,1.376-2.088,2.923-2.088c1.241,0,2.605,0.196,2.605,1.805V64.993z"
			/>
		<path fill="#E30613" d="M111.109,64.882c-0.221,0.812-1.033,1.831-2.888,1.831c-1.879,0-3.107-1.119-3.107-3.035
			c0-1.904,1.229-3.12,3.132-3.12c1.707,0,2.567,0.911,2.85,1.954l-1.867,0.528c-0.123-0.491-0.357-0.897-0.935-0.897
			c-0.711,0-0.971,0.64-0.971,1.536c0,0.885,0.284,1.45,0.971,1.45c0.528,0,0.751-0.295,0.898-0.749L111.109,64.882z"/>
		<path fill="#E30613" d="M113.542,62.917h2.003c-0.024-0.639-0.382-1.019-0.982-1.019
			C113.947,61.898,113.565,62.278,113.542,62.917 M117.497,65.361c-0.38,0.516-1.278,1.352-2.935,1.352
			c-1.868,0-3.108-1.155-3.108-3.132c0-1.867,1.314-3.022,3.108-3.022c2.014,0,3.034,1.388,3.034,3.23c0,0.135,0,0.222-0.013,0.356
			h-4.03c0.062,0.676,0.566,0.971,1.18,0.971c0.652,0,1.045-0.319,1.278-0.701L117.497,65.361z"/>
		<path fill="#36475A" d="M2.224,74.985c0.306-0.43,0.897-0.788,1.67-0.788c0.726,0,1.303,0.235,1.646,0.763
			c0.307-0.319,0.874-0.763,1.93-0.763c0.712,0,1.24,0.186,1.584,0.566c0.368,0.418,0.515,0.86,0.515,2.125v3.306H7.321v-3.318
			c0-0.565-0.073-0.981-0.663-0.981c-0.454,0-0.748,0.307-0.748,0.871v3.429H3.661v-3.318c0-0.565-0.074-0.981-0.663-0.981
			c-0.48,0-0.75,0.343-0.75,0.957v3.342H0v-5.847h2.223V74.985z"/>
		<path fill="#36475A" d="M13.441,78.755c0.688,0,0.972-0.65,0.972-1.498c0-0.85-0.284-1.5-0.972-1.5c-0.687,0-0.958,0.65-0.958,1.5
			C12.482,78.105,12.754,78.755,13.441,78.755 M13.441,74.187c1.916,0,3.194,1.191,3.194,3.095c0,1.916-1.253,3.059-3.194,3.059
			c-1.94,0-3.181-1.143-3.181-3.059C10.26,75.377,11.525,74.187,13.441,74.187"/>
		<path fill="#36475A" d="M20.605,75.746c-0.665,0-1.045,0.603-1.045,1.512c0,0.897,0.38,1.498,1.045,1.498
			c0.663,0,0.97-0.551,0.97-1.498C21.575,76.322,21.268,75.746,20.605,75.746 M21.28,80.34c-0.848,0-1.413-0.381-1.683-0.676v0.529
			h-2.249v-8.354h2.249v3.047c0.282-0.344,0.859-0.699,1.707-0.699c1.499,0,2.544,1.143,2.544,3.095
			C23.849,79.197,22.828,80.34,21.28,80.34"/>
	</g>
	<path fill="#36475A" d="M24.562,74.345v5.847h2.26l-0.025-5.847H24.562z M24.562,71.841v1.866h2.26l-0.025-1.866H24.562z"/>
	<polygon fill="#36475A" points="28.027,71.841 28.027,80.192 30.287,80.192 30.262,71.841 	"/>
	<path fill="#36475A" d="M31.491,74.345v5.847h2.26l-0.023-5.847H31.491z M31.491,71.841v1.866h2.26l-0.023-1.866H31.491z"/>
	<g>
		<path fill="#36475A" d="M35.533,77.957c0.38,0.491,1.069,0.909,1.977,0.909c0.542,0,0.837-0.123,0.837-0.382
			c0-0.27-0.394-0.343-0.898-0.442l-0.772-0.159c-0.898-0.196-2.053-0.466-2.053-1.757c0-1.425,1.425-1.942,2.642-1.942
			c1.241,0,2.187,0.493,2.69,0.971l-1.069,1.107c-0.379-0.307-0.944-0.616-1.695-0.616c-0.343,0-0.675,0.101-0.675,0.345
			c0,0.271,0.332,0.333,0.847,0.43l0.86,0.172c1.031,0.208,1.94,0.601,1.94,1.755c0,1.389-1.229,1.991-2.739,1.991
			c-1.339,0-2.432-0.503-3.084-1.29L35.533,77.957z"/>
		<path fill="#36475A" d="M43.729,78.755c0.687,0,0.971-0.65,0.971-1.498c0-0.85-0.284-1.5-0.971-1.5c-0.688,0-0.958,0.65-0.958,1.5
			C42.77,78.105,43.041,78.755,43.729,78.755 M43.729,74.187c1.916,0,3.194,1.191,3.194,3.095c0,1.916-1.253,3.059-3.194,3.059
			c-1.94,0-3.182-1.143-3.182-3.059C40.547,75.377,41.812,74.187,43.729,74.187"/>
		<path fill="#36475A" d="M49.859,74.985c0.307-0.43,0.922-0.788,1.756-0.788c0.652,0,1.18,0.186,1.523,0.566
			c0.368,0.418,0.517,0.834,0.517,2.125v3.306h-2.249v-3.318c0-0.565-0.086-0.981-0.712-0.981c-0.517,0-0.812,0.343-0.812,0.957
			v3.342h-2.247v-5.847h2.222V74.985z"/>
		<path fill="#36475A" d="M55.487,77.957c0.381,0.491,1.07,0.909,1.978,0.909c0.542,0,0.835-0.123,0.835-0.382
			c0-0.27-0.392-0.343-0.897-0.442l-0.773-0.159c-0.897-0.196-2.052-0.466-2.052-1.757c0-1.425,1.424-1.942,2.641-1.942
			c1.241,0,2.188,0.493,2.691,0.971l-1.069,1.107c-0.381-0.307-0.945-0.616-1.695-0.616c-0.344,0-0.675,0.101-0.675,0.345
			c0,0.271,0.331,0.333,0.846,0.43l0.861,0.172c1.031,0.208,1.941,0.601,1.941,1.755c0,1.389-1.229,1.991-2.74,1.991
			c-1.339,0-2.431-0.503-3.083-1.29L55.487,77.957z"/>
	</g>
	<rect x="60.612" y="75.992" fill="#36475A" width="3.414" height="1.83"/>
	<g>
		<path fill="#36475A" d="M67.196,74.985c0.307-0.43,0.922-0.788,1.756-0.788c0.653,0,1.18,0.186,1.524,0.566
			c0.368,0.418,0.517,0.834,0.517,2.125v3.306h-2.249v-3.318c0-0.565-0.086-0.981-0.712-0.981c-0.517,0-0.811,0.343-0.811,0.957
			v3.342h-2.247v-5.847h2.222V74.985z"/>
		<path fill="#36475A" d="M74.863,78.755c0.687,0,0.971-0.65,0.971-1.498c0-0.85-0.284-1.5-0.971-1.5c-0.688,0-0.958,0.65-0.958,1.5
			C73.905,78.105,74.176,78.755,74.863,78.755 M74.863,74.187c1.916,0,3.194,1.191,3.194,3.095c0,1.916-1.254,3.059-3.194,3.059
			c-1.94,0-3.182-1.143-3.182-3.059C71.682,75.377,72.947,74.187,74.863,74.187"/>
		<path fill="#36475A" d="M82.53,79.554c-0.294,0.43-0.885,0.788-1.731,0.788c-0.652,0-1.18-0.186-1.524-0.566
			c-0.368-0.418-0.517-0.834-0.517-2.125v-3.305h2.249v3.305c0,0.565,0.074,0.982,0.7,0.982c0.272,0,0.504-0.099,0.64-0.307
			c0.111-0.172,0.16-0.404,0.16-0.723v-3.257h2.247v5.847H82.53V79.554z"/>
		<path fill="#36475A" d="M86.548,77.957c0.38,0.491,1.07,0.909,1.978,0.909c0.542,0,0.836-0.123,0.836-0.382
			c0-0.27-0.393-0.343-0.897-0.442l-0.773-0.159c-0.897-0.196-2.052-0.466-2.052-1.757c0-1.425,1.425-1.942,2.641-1.942
			c1.241,0,2.188,0.493,2.691,0.971l-1.07,1.107c-0.38-0.307-0.944-0.616-1.695-0.616c-0.343,0-0.675,0.101-0.675,0.345
			c0,0.271,0.332,0.333,0.847,0.43l0.86,0.172c1.033,0.208,1.941,0.601,1.941,1.755c0,1.389-1.229,1.991-2.74,1.991
			c-1.339,0-2.431-0.503-3.083-1.29L86.548,77.957z"/>
	</g>
	<path fill="#36475A" d="M93.11,80.192h2.247V78.29H93.11V80.192z M93.11,71.841v3.721l0.208,2.286h1.857l0.182-2.286v-3.721H93.11z
		"/>
	<g>
		<path fill="#36475A" d="M100.24,45.807l1.063-6.113c1.405-7.972,7.478-9.985,13.099-10.136c1.821-0.038,4.366-0.228,4.366-2.543
			c0-1.596-1.52-2.201-3.189-2.201c-1.899,0-3.797,0.645-4.404,2.847h-7.289c1.14-6.189,6.227-9.037,12.718-9.037
			c5.012,0,9.758,2.277,9.758,7.441c0,7.935-6.378,9.303-12.985,9.417c-1.784,0.076-4.328,0.911-4.896,3.986h8.693l1.139-3.114
			h6.264l-1.67,9.454H100.24z"/>
		<path fill="#36475A" d="M135.244,34.417c-0.723,4.062,0.34,5.847,3.454,5.847c2.657,0,5.201-1.784,5.922-5.847l0.683-3.684
			c0.683-3.91-0.646-5.542-3.645-5.542c-2.618,0-5.05,1.594-5.77,5.62L135.244,34.417z M128.522,30.772
			c1.519-8.656,6.834-12.149,14.047-12.149c6.646,0,11.428,3.796,10.022,12.149l-0.607,3.607
			c-1.442,8.504-6.226,12.035-13.629,12.035c-6.301,0-12.034-3.303-10.479-11.998L128.522,30.772z"/>
		<path fill="#36475A" d="M164.512,33.848l-0.685-2.126l5.619-6.417h-6.378l-0.834,3.342h-6.303l1.67-9.417h22.059l-0.607,3.494
			l-6.492,7.858c2.809,1.101,4.479,2.771,4.479,5.81c0,4.936-3.189,10.174-13.325,10.174c-5.923,0-11.01-2.771-9.795-9.492h7.288
			c-0.34,2.164,1.367,3.265,3.722,3.265c2.391,0,4.556-1.062,4.556-3.835c0-1.707-1.14-2.656-3-2.656H164.512z"/>
		<path fill="#36475A" d="M187.404,34.417c-0.721,4.062,0.34,5.847,3.455,5.847c2.656,0,5.201-1.784,5.922-5.847l0.682-3.684
			c0.685-3.91-0.644-5.542-3.643-5.542c-2.62,0-5.05,1.594-5.771,5.62L187.404,34.417z M180.684,30.772
			c1.519-8.656,6.834-12.149,14.047-12.149c6.645,0,11.427,3.796,10.024,12.149l-0.609,3.607
			c-1.442,8.504-6.226,12.035-13.629,12.035c-6.302,0-12.036-3.303-10.477-11.998L180.684,30.772z"/>
		<path fill="#E30613" d="M47.842,11.876l8.519-9.673V2.202H44.877l-8.538,9.779h5.5l-1.19,5.171
			c-0.262,1.684-0.721,3.676-1.675,8.909L26.026,2.202H15.413l-8.538,9.779h6.436L6.736,40.033l-6.494,5.774h17.807l2.235-9.719
			l0.989-4.298l1.992-9.469l12.724,23.485h10.34l7.807-33.931H47.842z M96.961,16.841l3.368-14.639H66.692l-8.636,37.527
			l-6.834,6.079h39.886l3.396-14.763h-9.343l-1.253,4.359H71.45l1.519-6.604h10.466l2.207-9.592H75.176l1.548-6.728h11.648
			l-0.755,4.361H96.961z"/>
	</g>
</g>
</svg>
